<svg width="119" height="157" viewBox="0 0 119 157" fill="none" xmlns="http://www.w3.org/2000/svg">
<path d="M80.16 35.42C71.7899 35.42 63.27 35.08 55.2999 32.86C47.4799 30.69 40.2999 26.48 33.8999 21.61C29.7099 18.44 25.8999 15.92 20.4599 16.3C15.1335 16.5916 10.0423 18.5902 5.93995 22C-0.980052 28 0.0599475 39.23 2.82995 47.12C6.98995 59 19.6499 67.23 30.4099 72.61C42.84 78.82 56.5 82.42 70.1899 84.5C82.1899 86.32 97.6099 87.65 108.01 79.81C117.56 72.61 120.18 56.17 117.84 45.07C117.273 41.7879 115.527 38.8258 112.93 36.74C106.22 31.84 96.2099 35.11 88.6699 35.28C85.8699 35.34 83.02 35.41 80.16 35.42Z" fill="#F2F2F2"/>
<path d="M59.68 103.95C79.9543 103.95 96.39 102.925 96.39 101.66C96.39 100.395 79.9543 99.37 59.68 99.37C39.4056 99.37 22.97 100.395 22.97 101.66C22.97 102.925 39.4056 103.95 59.68 103.95Z" fill="#F2F2F2"/>
<path d="M86.2307 5.12191L29.6957 25.5427C27.7478 26.2462 26.7391 28.3957 27.4427 30.3436L39.3703 63.3654C40.0739 65.3133 42.2234 66.322 44.1713 65.6185L100.706 45.1977C102.654 44.4941 103.663 42.3447 102.959 40.3968L91.0316 7.37492C90.328 5.42702 88.1786 4.41832 86.2307 5.12191Z" fill="#D2D2D2"/>
<path d="M42.9099 83.26C43.4512 83.26 43.8899 82.8212 43.8899 82.28C43.8899 81.7387 43.4512 81.3 42.9099 81.3C42.3687 81.3 41.9299 81.7387 41.9299 82.28C41.9299 82.8212 42.3687 83.26 42.9099 83.26Z" fill="#CFCFCF"/>
<path d="M68.93 2.78001C69.4712 2.78001 69.91 2.34125 69.91 1.80001C69.91 1.25877 69.4712 0.820007 68.93 0.820007C68.3887 0.820007 67.95 1.25877 67.95 1.80001C67.95 2.34125 68.3887 2.78001 68.93 2.78001Z" fill="#CFCFCF"/>
<path d="M41.7 9.10999V13.42" stroke="#BABABA" stroke-linecap="round" stroke-linejoin="round"/>
<path d="M39.54 11.27H43.85" stroke="#BABABA" stroke-linecap="round" stroke-linejoin="round"/>
<path d="M104.93 25.04V29.34" stroke="#BABABA" stroke-linecap="round" stroke-linejoin="round"/>
<path d="M102.77 27.19H107.08" stroke="#BABABA" stroke-linecap="round" stroke-linejoin="round"/>
<path d="M88.3875 27.0738L28.944 36.0001C26.8959 36.3077 25.4849 38.2173 25.7925 40.2654L31.0063 74.9861C31.3139 77.0342 33.2235 78.4452 35.2716 78.1377L94.7151 69.2113C96.7632 68.9038 98.1742 66.9941 97.8667 64.946L92.6528 30.2253C92.3453 28.1772 90.4356 26.7662 88.3875 27.0738Z" fill="white" stroke="#BABABA" stroke-linecap="round" stroke-linejoin="round"/>
<path d="M84.859 32.5847L79.8551 33.3361C79.0194 33.4616 78.4438 34.2407 78.5692 35.0764L79.3207 40.0803C79.4461 40.9159 80.2253 41.4916 81.0609 41.3661L86.0648 40.6147C86.9004 40.4892 87.4761 39.7101 87.3506 38.8744L86.5992 33.8705C86.4737 33.0349 85.6946 32.4592 84.859 32.5847Z" fill="#D2D2D2"/>
<path d="M51.152 62.5778L36.526 64.7741C36.0672 64.843 35.7512 65.2707 35.8201 65.7295L35.8854 66.1646C35.9543 66.6234 36.382 66.9394 36.8408 66.8706L51.4668 64.6742C51.9256 64.6053 52.2417 64.1776 52.1728 63.7188L52.1074 63.2837C52.0386 62.8249 51.6108 62.5089 51.152 62.5778Z" fill="#D2D2D2"/>
<path d="M61.0401 65.383L37.3754 68.9366C36.7965 69.0235 36.3976 69.5633 36.4846 70.1422C36.5715 70.7211 37.1113 71.12 37.6902 71.033L61.3549 67.4794C61.9338 67.3925 62.3327 66.8527 62.2457 66.2738C62.1588 65.6949 61.619 65.296 61.0401 65.383Z" fill="#D2D2D2"/>
<path d="M30.7999 134.32V141.55H30.1099C30.0032 141.55 29.9132 141.533 29.8399 141.5C29.7699 141.463 29.7016 141.403 29.6349 141.32L25.8599 136.5C25.8799 136.72 25.8899 136.923 25.8899 137.11V141.55H24.7049V134.32H25.4099C25.4666 134.32 25.5149 134.323 25.5549 134.33C25.5982 134.333 25.6349 134.343 25.6649 134.36C25.6982 134.373 25.7299 134.395 25.7599 134.425C25.7899 134.452 25.8232 134.488 25.8599 134.535L29.6499 139.375C29.6399 139.258 29.6316 139.143 29.6249 139.03C29.6182 138.917 29.6149 138.812 29.6149 138.715V134.32H30.7999ZM34.3287 136.34C34.7087 136.34 35.0537 136.402 35.3637 136.525C35.6771 136.648 35.9437 136.823 36.1637 137.05C36.3871 137.277 36.5587 137.553 36.6787 137.88C36.7987 138.207 36.8587 138.572 36.8587 138.975C36.8587 139.382 36.7987 139.748 36.6787 140.075C36.5587 140.402 36.3871 140.68 36.1637 140.91C35.9437 141.14 35.6771 141.317 35.3637 141.44C35.0537 141.563 34.7087 141.625 34.3287 141.625C33.9454 141.625 33.5971 141.563 33.2837 141.44C32.9704 141.317 32.7021 141.14 32.4787 140.91C32.2587 140.68 32.0871 140.402 31.9637 140.075C31.8437 139.748 31.7837 139.382 31.7837 138.975C31.7837 138.572 31.8437 138.207 31.9637 137.88C32.0871 137.553 32.2587 137.277 32.4787 137.05C32.7021 136.823 32.9704 136.648 33.2837 136.525C33.5971 136.402 33.9454 136.34 34.3287 136.34ZM34.3287 140.675C34.7554 140.675 35.0704 140.532 35.2737 140.245C35.4804 139.958 35.5837 139.538 35.5837 138.985C35.5837 138.432 35.4804 138.01 35.2737 137.72C35.0704 137.43 34.7554 137.285 34.3287 137.285C33.8954 137.285 33.5737 137.432 33.3637 137.725C33.1571 138.015 33.0537 138.435 33.0537 138.985C33.0537 139.535 33.1571 139.955 33.3637 140.245C33.5737 140.532 33.8954 140.675 34.3287 140.675ZM45.3926 139.845C45.4659 139.845 45.5309 139.873 45.5876 139.93L46.1176 140.505C45.8242 140.868 45.4626 141.147 45.0326 141.34C44.6059 141.533 44.0926 141.63 43.4926 141.63C42.9559 141.63 42.4726 141.538 42.0426 141.355C41.6159 141.172 41.2509 140.917 40.9476 140.59C40.6442 140.263 40.4109 139.873 40.2476 139.42C40.0876 138.967 40.0076 138.472 40.0076 137.935C40.0076 137.392 40.0942 136.895 40.2676 136.445C40.4409 135.992 40.6842 135.602 40.9976 135.275C41.3142 134.948 41.6909 134.695 42.1276 134.515C42.5642 134.332 43.0476 134.24 43.5776 134.24C44.1042 134.24 44.5709 134.327 44.9776 134.5C45.3876 134.673 45.7359 134.9 46.0226 135.18L45.5726 135.805C45.5459 135.845 45.5109 135.88 45.4676 135.91C45.4276 135.94 45.3709 135.955 45.2976 135.955C45.2476 135.955 45.1959 135.942 45.1426 135.915C45.0892 135.885 45.0309 135.85 44.9676 135.81C44.9042 135.767 44.8309 135.72 44.7476 135.67C44.6642 135.62 44.5676 135.575 44.4576 135.535C44.3476 135.492 44.2192 135.457 44.0726 135.43C43.9292 135.4 43.7626 135.385 43.5726 135.385C43.2492 135.385 42.9526 135.443 42.6826 135.56C42.4159 135.673 42.1859 135.84 41.9926 136.06C41.7992 136.277 41.6492 136.543 41.5426 136.86C41.4359 137.173 41.3826 137.532 41.3826 137.935C41.3826 138.342 41.4392 138.703 41.5526 139.02C41.6692 139.337 41.8259 139.603 42.0226 139.82C42.2192 140.037 42.4509 140.203 42.7176 140.32C42.9842 140.433 43.2709 140.49 43.5776 140.49C43.7609 140.49 43.9259 140.48 44.0726 140.46C44.2226 140.44 44.3592 140.408 44.4826 140.365C44.6092 140.322 44.7276 140.267 44.8376 140.2C44.9509 140.13 45.0626 140.045 45.1726 139.945C45.2059 139.915 45.2409 139.892 45.2776 139.875C45.3142 139.855 45.3526 139.845 45.3926 139.845ZM47.9894 137.31C48.1494 137.003 48.3394 136.763 48.5594 136.59C48.7794 136.413 49.0394 136.325 49.3394 136.325C49.576 136.325 49.766 136.377 49.9094 136.48L49.8294 137.405C49.8127 137.465 49.7877 137.508 49.7544 137.535C49.7244 137.558 49.6827 137.57 49.6294 137.57C49.5794 137.57 49.5044 137.562 49.4044 137.545C49.3077 137.528 49.2127 137.52 49.1194 137.52C48.9827 137.52 48.861 137.54 48.7544 137.58C48.6477 137.62 48.551 137.678 48.4644 137.755C48.381 137.828 48.306 137.918 48.2394 138.025C48.176 138.132 48.116 138.253 48.0594 138.39V141.55H46.8244V136.42H47.5494C47.676 136.42 47.7644 136.443 47.8144 136.49C47.8644 136.533 47.8977 136.613 47.9144 136.73L47.9894 137.31ZM53.7133 138.395C53.7133 138.235 53.69 138.085 53.6433 137.945C53.6 137.802 53.5333 137.677 53.4433 137.57C53.3533 137.463 53.2383 137.38 53.0983 137.32C52.9617 137.257 52.8017 137.225 52.6183 137.225C52.2617 137.225 51.98 137.327 51.7733 137.53C51.57 137.733 51.44 138.022 51.3833 138.395H53.7133ZM51.3583 139.14C51.3783 139.403 51.425 139.632 51.4983 139.825C51.5717 140.015 51.6683 140.173 51.7883 140.3C51.9083 140.423 52.05 140.517 52.2133 140.58C52.38 140.64 52.5633 140.67 52.7633 140.67C52.9633 140.67 53.135 140.647 53.2783 140.6C53.425 140.553 53.5517 140.502 53.6583 140.445C53.7683 140.388 53.8633 140.337 53.9433 140.29C54.0267 140.243 54.1067 140.22 54.1833 140.22C54.2867 140.22 54.3633 140.258 54.4133 140.335L54.7683 140.785C54.6317 140.945 54.4783 141.08 54.3083 141.19C54.1383 141.297 53.96 141.383 53.7733 141.45C53.59 141.513 53.4017 141.558 53.2083 141.585C53.0183 141.612 52.8333 141.625 52.6533 141.625C52.2967 141.625 51.965 141.567 51.6583 141.45C51.3517 141.33 51.085 141.155 50.8583 140.925C50.6317 140.692 50.4533 140.405 50.3233 140.065C50.1933 139.722 50.1283 139.325 50.1283 138.875C50.1283 138.525 50.185 138.197 50.2983 137.89C50.4117 137.58 50.5733 137.312 50.7833 137.085C50.9967 136.855 51.255 136.673 51.5583 136.54C51.865 136.407 52.21 136.34 52.5933 136.34C52.9167 136.34 53.215 136.392 53.4883 136.495C53.7617 136.598 53.9967 136.75 54.1933 136.95C54.39 137.147 54.5433 137.39 54.6533 137.68C54.7667 137.967 54.8233 138.295 54.8233 138.665C54.8233 138.852 54.8033 138.978 54.7633 139.045C54.7233 139.108 54.6467 139.14 54.5333 139.14H51.3583ZM58.9701 137.73C58.8301 137.56 58.6768 137.44 58.5101 137.37C58.3468 137.3 58.1701 137.265 57.9801 137.265C57.7935 137.265 57.6251 137.3 57.4751 137.37C57.3251 137.44 57.1968 137.547 57.0901 137.69C56.9835 137.83 56.9018 138.01 56.8451 138.23C56.7885 138.447 56.7601 138.703 56.7601 139C56.7601 139.3 56.7835 139.555 56.8301 139.765C56.8801 139.972 56.9501 140.142 57.0401 140.275C57.1301 140.405 57.2401 140.5 57.3701 140.56C57.5001 140.617 57.6451 140.645 57.8051 140.645C58.0618 140.645 58.2801 140.592 58.4601 140.485C58.6401 140.378 58.8101 140.227 58.9701 140.03V137.73ZM60.2051 134.12V141.55H59.4501C59.2868 141.55 59.1835 141.475 59.1401 141.325L59.0351 140.83C58.8285 141.067 58.5901 141.258 58.3201 141.405C58.0535 141.552 57.7418 141.625 57.3851 141.625C57.1051 141.625 56.8485 141.567 56.6151 141.45C56.3818 141.333 56.1801 141.165 56.0101 140.945C55.8435 140.722 55.7135 140.447 55.6201 140.12C55.5301 139.793 55.4851 139.42 55.4851 139C55.4851 138.62 55.5368 138.267 55.6401 137.94C55.7435 137.613 55.8918 137.33 56.0851 137.09C56.2785 136.85 56.5101 136.663 56.7801 136.53C57.0501 136.393 57.3535 136.325 57.6901 136.325C57.9768 136.325 58.2218 136.37 58.4251 136.46C58.6285 136.55 58.8101 136.672 58.9701 136.825V134.12H60.2051ZM62.704 136.42V141.55H61.464V136.42H62.704ZM62.874 134.925C62.874 135.032 62.8523 135.132 62.809 135.225C62.7656 135.318 62.7073 135.4 62.634 135.47C62.564 135.54 62.4806 135.597 62.384 135.64C62.2873 135.68 62.184 135.7 62.074 135.7C61.9673 135.7 61.8656 135.68 61.769 135.64C61.6756 135.597 61.594 135.54 61.524 135.47C61.454 135.4 61.3973 135.318 61.354 135.225C61.314 135.132 61.294 135.032 61.294 134.925C61.294 134.815 61.314 134.712 61.354 134.615C61.3973 134.518 61.454 134.435 61.524 134.365C61.594 134.295 61.6756 134.24 61.769 134.2C61.8656 134.157 61.9673 134.135 62.074 134.135C62.184 134.135 62.2873 134.157 62.384 134.2C62.4806 134.24 62.564 134.295 62.634 134.365C62.7073 134.435 62.7656 134.518 62.809 134.615C62.8523 134.712 62.874 134.815 62.874 134.925ZM65.673 141.63C65.2264 141.63 64.883 141.505 64.643 141.255C64.4064 141.002 64.288 140.653 64.288 140.21V137.345H63.763C63.6964 137.345 63.6397 137.323 63.593 137.28C63.5464 137.237 63.523 137.172 63.523 137.085V136.595L64.348 136.46L64.608 135.06C64.6247 134.993 64.6564 134.942 64.703 134.905C64.7497 134.868 64.8097 134.85 64.883 134.85H65.523V136.465H66.893V137.345H65.523V140.125C65.523 140.285 65.5614 140.41 65.638 140.5C65.718 140.59 65.8264 140.635 65.963 140.635C66.0397 140.635 66.103 140.627 66.153 140.61C66.2064 140.59 66.2514 140.57 66.288 140.55C66.328 140.53 66.363 140.512 66.393 140.495C66.423 140.475 66.453 140.465 66.483 140.465C66.5197 140.465 66.5497 140.475 66.573 140.495C66.5964 140.512 66.6214 140.538 66.648 140.575L67.018 141.175C66.838 141.325 66.6314 141.438 66.398 141.515C66.1647 141.592 65.923 141.63 65.673 141.63ZM75.2754 139.845C75.3487 139.845 75.4137 139.873 75.4704 139.93L76.0004 140.505C75.707 140.868 75.3454 141.147 74.9154 141.34C74.4887 141.533 73.9754 141.63 73.3754 141.63C72.8387 141.63 72.3554 141.538 71.9254 141.355C71.4987 141.172 71.1337 140.917 70.8304 140.59C70.527 140.263 70.2937 139.873 70.1304 139.42C69.9704 138.967 69.8904 138.472 69.8904 137.935C69.8904 137.392 69.977 136.895 70.1504 136.445C70.3237 135.992 70.567 135.602 70.8804 135.275C71.197 134.948 71.5737 134.695 72.0104 134.515C72.447 134.332 72.9304 134.24 73.4604 134.24C73.987 134.24 74.4537 134.327 74.8604 134.5C75.2704 134.673 75.6187 134.9 75.9054 135.18L75.4554 135.805C75.4287 135.845 75.3937 135.88 75.3504 135.91C75.3104 135.94 75.2537 135.955 75.1804 135.955C75.1304 135.955 75.0787 135.942 75.0254 135.915C74.972 135.885 74.9137 135.85 74.8504 135.81C74.787 135.767 74.7137 135.72 74.6304 135.67C74.547 135.62 74.4504 135.575 74.3404 135.535C74.2304 135.492 74.102 135.457 73.9554 135.43C73.812 135.4 73.6454 135.385 73.4554 135.385C73.132 135.385 72.8354 135.443 72.5654 135.56C72.2987 135.673 72.0687 135.84 71.8754 136.06C71.682 136.277 71.532 136.543 71.4254 136.86C71.3187 137.173 71.2654 137.532 71.2654 137.935C71.2654 138.342 71.322 138.703 71.4354 139.02C71.552 139.337 71.7087 139.603 71.9054 139.82C72.102 140.037 72.3337 140.203 72.6004 140.32C72.867 140.433 73.1537 140.49 73.4604 140.49C73.6437 140.49 73.8087 140.48 73.9554 140.46C74.1054 140.44 74.242 140.408 74.3654 140.365C74.492 140.322 74.6104 140.267 74.7204 140.2C74.8337 140.13 74.9454 140.045 75.0554 139.945C75.0887 139.915 75.1237 139.892 75.1604 139.875C75.197 139.855 75.2354 139.845 75.2754 139.845ZM79.4367 139.36C79.08 139.377 78.78 139.408 78.5367 139.455C78.2934 139.498 78.0984 139.555 77.9517 139.625C77.805 139.695 77.7 139.777 77.6367 139.87C77.5734 139.963 77.5417 140.065 77.5417 140.175C77.5417 140.392 77.605 140.547 77.7317 140.64C77.8617 140.733 78.03 140.78 78.2367 140.78C78.49 140.78 78.7084 140.735 78.8917 140.645C79.0784 140.552 79.26 140.412 79.4367 140.225V139.36ZM76.6067 137.135C77.1967 136.595 77.9067 136.325 78.7367 136.325C79.0367 136.325 79.305 136.375 79.5417 136.475C79.7784 136.572 79.9784 136.708 80.1417 136.885C80.305 137.058 80.4284 137.267 80.5117 137.51C80.5984 137.753 80.6417 138.02 80.6417 138.31V141.55H80.0817C79.965 141.55 79.875 141.533 79.8117 141.5C79.7484 141.463 79.6984 141.392 79.6617 141.285L79.5517 140.915C79.4217 141.032 79.295 141.135 79.1717 141.225C79.0484 141.312 78.92 141.385 78.7867 141.445C78.6534 141.505 78.51 141.55 78.3567 141.58C78.2067 141.613 78.04 141.63 77.8567 141.63C77.64 141.63 77.44 141.602 77.2567 141.545C77.0734 141.485 76.915 141.397 76.7817 141.28C76.6484 141.163 76.545 141.018 76.4717 140.845C76.3984 140.672 76.3617 140.47 76.3617 140.24C76.3617 140.11 76.3834 139.982 76.4267 139.855C76.47 139.725 76.54 139.602 76.6367 139.485C76.7367 139.368 76.865 139.258 77.0217 139.155C77.1784 139.052 77.37 138.962 77.5967 138.885C77.8267 138.808 78.0934 138.747 78.3967 138.7C78.7 138.65 79.0467 138.62 79.4367 138.61V138.31C79.4367 137.967 79.3634 137.713 79.2167 137.55C79.07 137.383 78.8584 137.3 78.5817 137.3C78.3817 137.3 78.215 137.323 78.0817 137.37C77.9517 137.417 77.8367 137.47 77.7367 137.53C77.6367 137.587 77.545 137.638 77.4617 137.685C77.3817 137.732 77.2917 137.755 77.1917 137.755C77.105 137.755 77.0317 137.733 76.9717 137.69C76.9117 137.643 76.8634 137.59 76.8267 137.53L76.6067 137.135ZM82.9698 137.31C83.1298 137.003 83.3198 136.763 83.5398 136.59C83.7598 136.413 84.0198 136.325 84.3198 136.325C84.5565 136.325 84.7465 136.377 84.8898 136.48L84.8098 137.405C84.7932 137.465 84.7682 137.508 84.7348 137.535C84.7048 137.558 84.6632 137.57 84.6098 137.57C84.5598 137.57 84.4848 137.562 84.3848 137.545C84.2882 137.528 84.1932 137.52 84.0998 137.52C83.9632 137.52 83.8415 137.54 83.7348 137.58C83.6282 137.62 83.5315 137.678 83.4448 137.755C83.3615 137.828 83.2865 137.918 83.2198 138.025C83.1565 138.132 83.0965 138.253 83.0398 138.39V141.55H81.8048V136.42H82.5298C82.6565 136.42 82.7448 136.443 82.7948 136.49C82.8448 136.533 82.8782 136.613 82.8948 136.73L82.9698 137.31ZM88.6186 137.73C88.4786 137.56 88.3252 137.44 88.1586 137.37C87.9952 137.3 87.8186 137.265 87.6286 137.265C87.4419 137.265 87.2736 137.3 87.1236 137.37C86.9736 137.44 86.8452 137.547 86.7386 137.69C86.6319 137.83 86.5502 138.01 86.4936 138.23C86.4369 138.447 86.4086 138.703 86.4086 139C86.4086 139.3 86.4319 139.555 86.4786 139.765C86.5286 139.972 86.5986 140.142 86.6886 140.275C86.7786 140.405 86.8886 140.5 87.0186 140.56C87.1486 140.617 87.2936 140.645 87.4536 140.645C87.7102 140.645 87.9286 140.592 88.1086 140.485C88.2886 140.378 88.4586 140.227 88.6186 140.03V137.73ZM89.8536 134.12V141.55H89.0986C88.9352 141.55 88.8319 141.475 88.7886 141.325L88.6836 140.83C88.4769 141.067 88.2386 141.258 87.9686 141.405C87.7019 141.552 87.3902 141.625 87.0336 141.625C86.7536 141.625 86.4969 141.567 86.2636 141.45C86.0302 141.333 85.8286 141.165 85.6586 140.945C85.4919 140.722 85.3619 140.447 85.2686 140.12C85.1786 139.793 85.1336 139.42 85.1336 139C85.1336 138.62 85.1852 138.267 85.2886 137.94C85.3919 137.613 85.5402 137.33 85.7336 137.09C85.9269 136.85 86.1586 136.663 86.4286 136.53C86.6986 136.393 87.0019 136.325 87.3386 136.325C87.6252 136.325 87.8702 136.37 88.0736 136.46C88.2769 136.55 88.4586 136.672 88.6186 136.825V134.12H89.8536ZM94.2024 137.42C94.1691 137.473 94.1341 137.512 94.0974 137.535C94.0607 137.555 94.0141 137.565 93.9574 137.565C93.8974 137.565 93.8324 137.548 93.7624 137.515C93.6957 137.482 93.6174 137.445 93.5274 137.405C93.4374 137.362 93.3341 137.323 93.2174 137.29C93.1041 137.257 92.9691 137.24 92.8124 137.24C92.5691 137.24 92.3774 137.292 92.2374 137.395C92.1007 137.498 92.0324 137.633 92.0324 137.8C92.0324 137.91 92.0674 138.003 92.1374 138.08C92.2107 138.153 92.3057 138.218 92.4224 138.275C92.5424 138.332 92.6774 138.383 92.8274 138.43C92.9774 138.473 93.1291 138.522 93.2824 138.575C93.4391 138.628 93.5924 138.69 93.7424 138.76C93.8924 138.827 94.0257 138.913 94.1424 139.02C94.2624 139.123 94.3574 139.248 94.4274 139.395C94.5007 139.542 94.5374 139.718 94.5374 139.925C94.5374 140.172 94.4924 140.4 94.4024 140.61C94.3157 140.817 94.1857 140.997 94.0124 141.15C93.8391 141.3 93.6241 141.418 93.3674 141.505C93.1141 141.588 92.8207 141.63 92.4874 141.63C92.3107 141.63 92.1374 141.613 91.9674 141.58C91.8007 141.55 91.6391 141.507 91.4824 141.45C91.3291 141.393 91.1857 141.327 91.0524 141.25C90.9224 141.173 90.8074 141.09 90.7074 141L90.9924 140.53C91.0291 140.473 91.0724 140.43 91.1224 140.4C91.1724 140.37 91.2357 140.355 91.3124 140.355C91.3891 140.355 91.4607 140.377 91.5274 140.42C91.5974 140.463 91.6774 140.51 91.7674 140.56C91.8574 140.61 91.9624 140.657 92.0824 140.7C92.2057 140.743 92.3607 140.765 92.5474 140.765C92.6941 140.765 92.8191 140.748 92.9224 140.715C93.0291 140.678 93.1157 140.632 93.1824 140.575C93.2524 140.518 93.3024 140.453 93.3324 140.38C93.3657 140.303 93.3824 140.225 93.3824 140.145C93.3824 140.025 93.3457 139.927 93.2724 139.85C93.2024 139.773 93.1074 139.707 92.9874 139.65C92.8707 139.593 92.7357 139.543 92.5824 139.5C92.4324 139.453 92.2774 139.403 92.1174 139.35C91.9607 139.297 91.8057 139.235 91.6524 139.165C91.5024 139.092 91.3674 139 91.2474 138.89C91.1307 138.78 91.0357 138.645 90.9624 138.485C90.8924 138.325 90.8574 138.132 90.8574 137.905C90.8574 137.695 90.8991 137.495 90.9824 137.305C91.0657 137.115 91.1874 136.95 91.3474 136.81C91.5107 136.667 91.7124 136.553 91.9524 136.47C92.1957 136.383 92.4757 136.34 92.7924 136.34C93.1457 136.34 93.4674 136.398 93.7574 136.515C94.0474 136.632 94.2891 136.785 94.4824 136.975L94.2024 137.42Z" fill="#939090"/>
<path d="M6.57644 154.73V149.639H8.29661C8.69599 149.639 9.02246 149.711 9.27601 149.855C9.53122 149.998 9.72014 150.191 9.84277 150.435C9.96541 150.678 10.0267 150.95 10.0267 151.25C10.0267 151.55 9.96541 151.822 9.84277 152.068C9.7218 152.313 9.53454 152.509 9.28098 152.654C9.02743 152.799 8.70262 152.871 8.30655 152.871H7.0736V152.324H8.28667C8.5601 152.324 8.77968 152.277 8.9454 152.182C9.11112 152.088 9.23127 151.96 9.30584 151.799C9.38207 151.637 9.42019 151.454 9.42019 151.25C9.42019 151.046 9.38207 150.864 9.30584 150.703C9.23127 150.542 9.11029 150.416 8.94292 150.325C8.77554 150.232 8.55347 150.186 8.27672 150.186H7.19292V154.73H6.57644ZM11.5269 149.639V154.73H10.9403V149.639H11.5269ZM14.2022 154.81C13.8343 154.81 13.517 154.728 13.2502 154.566C12.985 154.402 12.7804 154.173 12.6362 153.88C12.4937 153.585 12.4224 153.242 12.4224 152.851C12.4224 152.46 12.4937 152.115 12.6362 151.817C12.7804 151.517 12.9809 151.283 13.2377 151.116C13.4963 150.947 13.7979 150.862 14.1426 150.862C14.3414 150.862 14.5378 150.895 14.7317 150.962C14.9256 151.028 15.1021 151.136 15.2612 151.285C15.4203 151.432 15.5471 151.628 15.6415 151.871C15.736 152.115 15.7832 152.415 15.7832 152.771V153.02H12.84V152.513H15.1866C15.1866 152.297 15.1435 152.105 15.0574 151.936C14.9728 151.767 14.8519 151.634 14.6944 151.536C14.5386 151.438 14.3547 151.389 14.1426 151.389C13.9089 151.389 13.7067 151.447 13.536 151.563C13.367 151.677 13.2369 151.827 13.1458 152.011C13.0546 152.194 13.0091 152.392 13.0091 152.602V152.94C13.0091 153.229 13.0588 153.473 13.1582 153.674C13.2593 153.872 13.3993 154.024 13.5783 154.128C13.7573 154.231 13.9653 154.283 14.2022 154.283C14.3564 154.283 14.4956 154.261 14.6199 154.218C14.7458 154.173 14.8543 154.107 14.9455 154.019C15.0366 153.93 15.1071 153.819 15.1568 153.686L15.7235 153.845C15.6639 154.037 15.5636 154.206 15.4228 154.352C15.2819 154.496 15.1079 154.609 14.9007 154.69C14.6936 154.77 14.4608 154.81 14.2022 154.81ZM17.7992 154.819C17.5572 154.819 17.3377 154.774 17.1404 154.683C16.9432 154.59 16.7866 154.457 16.6706 154.283C16.5546 154.107 16.4966 153.895 16.4966 153.646C16.4966 153.427 16.5397 153.25 16.6259 153.114C16.7121 152.977 16.8272 152.869 16.9714 152.791C17.1156 152.713 17.2747 152.655 17.4487 152.617C17.6243 152.577 17.8008 152.546 17.9782 152.523C18.2102 152.493 18.3983 152.47 18.5424 152.455C18.6883 152.439 18.7943 152.412 18.8606 152.373C18.9286 152.335 18.9625 152.269 18.9625 152.175V152.155C18.9625 151.909 18.8954 151.719 18.7612 151.583C18.6286 151.447 18.4273 151.379 18.1571 151.379C17.8771 151.379 17.6575 151.44 17.4984 151.563C17.3393 151.686 17.2275 151.817 17.1628 151.956L16.606 151.757C16.7054 151.525 16.838 151.344 17.0037 151.215C17.1711 151.084 17.3534 150.993 17.5506 150.942C17.7495 150.889 17.945 150.862 18.1373 150.862C18.2599 150.862 18.4007 150.877 18.5598 150.907C18.7206 150.935 18.8755 150.994 19.0247 151.083C19.1755 151.173 19.3006 151.308 19.4 151.489C19.4995 151.669 19.5492 151.911 19.5492 152.214V154.73H18.9625V154.213H18.9327C18.8929 154.296 18.8266 154.384 18.7338 154.479C18.641 154.573 18.5176 154.654 18.3635 154.72C18.2093 154.786 18.0212 154.819 17.7992 154.819ZM17.8887 154.292C18.1207 154.292 18.3162 154.247 18.4753 154.156C18.6361 154.065 18.757 153.947 18.8382 153.803C18.9211 153.659 18.9625 153.507 18.9625 153.348V152.811C18.9377 152.841 18.883 152.868 18.7985 152.893C18.7156 152.916 18.6195 152.937 18.5101 152.955C18.4024 152.972 18.2972 152.987 18.1944 153C18.0933 153.011 18.0113 153.021 17.9483 153.03C17.7959 153.05 17.6533 153.082 17.5208 153.127C17.3899 153.17 17.2838 153.235 17.2026 153.323C17.123 153.409 17.0833 153.527 17.0833 153.676C17.0833 153.88 17.1587 154.034 17.3095 154.138C17.4619 154.241 17.655 154.292 17.8887 154.292ZM23.3245 151.767L22.7975 151.916C22.7644 151.828 22.7155 151.743 22.6508 151.66C22.5879 151.576 22.5017 151.506 22.3923 151.451C22.2829 151.397 22.1429 151.369 21.9722 151.369C21.7385 151.369 21.5438 151.423 21.3881 151.531C21.2339 151.637 21.1569 151.772 21.1569 151.936C21.1569 152.082 21.2099 152.197 21.316 152.281C21.422 152.366 21.5877 152.436 21.8131 152.493L22.3799 152.632C22.7213 152.715 22.9756 152.842 23.143 153.012C23.3104 153.181 23.3941 153.399 23.3941 153.666C23.3941 153.885 23.3311 154.08 23.2052 154.253C23.0809 154.425 22.9069 154.561 22.6831 154.66C22.4594 154.76 22.1992 154.81 21.9026 154.81C21.5132 154.81 21.1908 154.725 20.9356 154.556C20.6804 154.387 20.5189 154.14 20.4509 153.815L21.0077 153.676C21.0608 153.882 21.161 154.036 21.3085 154.138C21.4577 154.241 21.6524 154.292 21.8927 154.292C22.1661 154.292 22.3832 154.234 22.5439 154.118C22.7064 154.001 22.7876 153.86 22.7876 153.696C22.7876 153.563 22.7412 153.452 22.6483 153.363C22.5555 153.272 22.413 153.204 22.2208 153.159L21.5844 153.01C21.2348 152.927 20.9779 152.799 20.8138 152.625C20.6514 152.449 20.5702 152.229 20.5702 151.966C20.5702 151.75 20.6307 151.56 20.7517 151.394C20.8743 151.228 21.0409 151.098 21.2513 151.004C21.4635 150.909 21.7037 150.862 21.9722 150.862C22.3501 150.862 22.6467 150.945 22.8621 151.111C23.0792 151.276 23.2333 151.495 23.3245 151.767ZM25.878 154.81C25.5101 154.81 25.1928 154.728 24.926 154.566C24.6608 154.402 24.4561 154.173 24.312 153.88C24.1694 153.585 24.0982 153.242 24.0982 152.851C24.0982 152.46 24.1694 152.115 24.312 151.817C24.4561 151.517 24.6567 151.283 24.9135 151.116C25.1721 150.947 25.4737 150.862 25.8184 150.862C26.0172 150.862 26.2136 150.895 26.4075 150.962C26.6014 151.028 26.7779 151.136 26.937 151.285C27.0961 151.432 27.2228 151.628 27.3173 151.871C27.4118 152.115 27.459 152.415 27.459 152.771V153.02H24.5158V152.513H26.8624C26.8624 152.297 26.8193 152.105 26.7331 151.936C26.6486 151.767 26.5276 151.634 26.3702 151.536C26.2144 151.438 26.0305 151.389 25.8184 151.389C25.5847 151.389 25.3825 151.447 25.2118 151.563C25.0428 151.677 24.9127 151.827 24.8216 152.011C24.7304 152.194 24.6848 152.392 24.6848 152.602V152.94C24.6848 153.229 24.7346 153.473 24.834 153.674C24.9351 153.872 25.0751 154.024 25.2541 154.128C25.4331 154.231 25.641 154.283 25.878 154.283C26.0321 154.283 26.1713 154.261 26.2956 154.218C26.4216 154.173 26.5301 154.107 26.6213 154.019C26.7124 153.93 26.7828 153.819 26.8326 153.686L27.3993 153.845C27.3397 154.037 27.2394 154.206 27.0985 154.352C26.9577 154.496 26.7837 154.609 26.5765 154.69C26.3694 154.77 26.1365 154.81 25.878 154.81ZM31.4437 154.819C31.2018 154.819 30.9822 154.774 30.785 154.683C30.5878 154.59 30.4312 154.457 30.3152 154.283C30.1992 154.107 30.1412 153.895 30.1412 153.646C30.1412 153.427 30.1842 153.25 30.2704 153.114C30.3566 152.977 30.4718 152.869 30.6159 152.791C30.7601 152.713 30.9192 152.655 31.0932 152.617C31.2689 152.577 31.4454 152.546 31.6227 152.523C31.8547 152.493 32.0428 152.47 32.187 152.455C32.3328 152.439 32.4389 152.412 32.5051 152.373C32.5731 152.335 32.6071 152.269 32.6071 152.175V152.155C32.6071 151.909 32.54 151.719 32.4057 151.583C32.2731 151.447 32.0718 151.379 31.8017 151.379C31.5216 151.379 31.302 151.44 31.1429 151.563C30.9838 151.686 30.872 151.817 30.8074 151.956L30.2505 151.757C30.35 151.525 30.4825 151.344 30.6483 151.215C30.8156 151.084 30.9979 150.993 31.1951 150.942C31.394 150.889 31.5895 150.862 31.7818 150.862C31.9044 150.862 32.0453 150.877 32.2044 150.907C32.3651 150.935 32.5201 150.994 32.6692 151.083C32.82 151.173 32.9451 151.308 33.0446 151.489C33.144 151.669 33.1937 151.911 33.1937 152.214V154.73H32.6071V154.213H32.5772C32.5375 154.296 32.4712 154.384 32.3784 154.479C32.2856 154.573 32.1621 154.654 32.008 154.72C31.8539 154.786 31.6658 154.819 31.4437 154.819ZM31.5332 154.292C31.7652 154.292 31.9608 154.247 32.1199 154.156C32.2806 154.065 32.4016 153.947 32.4828 153.803C32.5656 153.659 32.6071 153.507 32.6071 153.348V152.811C32.5822 152.841 32.5275 152.868 32.443 152.893C32.3601 152.916 32.264 152.937 32.1547 152.955C32.0469 152.972 31.9417 152.987 31.839 153C31.7379 153.011 31.6558 153.021 31.5929 153.03C31.4404 153.05 31.2979 153.082 31.1653 153.127C31.0344 153.17 30.9283 153.235 30.8471 153.323C30.7676 153.409 30.7278 153.527 30.7278 153.676C30.7278 153.88 30.8032 154.034 30.954 154.138C31.1065 154.241 31.2995 154.292 31.5332 154.292ZM35.7062 154.81C35.3881 154.81 35.1072 154.729 34.8635 154.568C34.6199 154.406 34.4294 154.177 34.2918 153.882C34.1543 153.586 34.0855 153.235 34.0855 152.831C34.0855 152.43 34.1543 152.082 34.2918 151.787C34.4294 151.492 34.6208 151.264 34.866 151.103C35.1113 150.942 35.3947 150.862 35.7162 150.862C35.9648 150.862 36.1611 150.904 36.3053 150.986C36.4511 151.068 36.5622 151.16 36.6384 151.265C36.7163 151.368 36.7768 151.452 36.8199 151.518H36.8696V149.639H37.4562V154.73H36.8895V154.143H36.8199C36.7768 154.213 36.7155 154.301 36.6359 154.407C36.5564 154.511 36.4429 154.605 36.2954 154.688C36.1479 154.769 35.9515 154.81 35.7062 154.81ZM35.7858 154.283C36.0211 154.283 36.22 154.221 36.3824 154.099C36.5448 153.974 36.6682 153.803 36.7528 153.584C36.8373 153.364 36.8795 153.109 36.8795 152.821C36.8795 152.536 36.8381 152.286 36.7552 152.073C36.6724 151.857 36.5497 151.69 36.3873 151.571C36.2249 151.45 36.0244 151.389 35.7858 151.389C35.5372 151.389 35.33 151.453 35.1643 151.58C35.0003 151.706 34.8768 151.878 34.7939 152.095C34.7127 152.31 34.6721 152.552 34.6721 152.821C34.6721 153.093 34.7136 153.34 34.7964 153.562C34.8809 153.782 35.0052 153.958 35.1693 154.089C35.335 154.218 35.5405 154.283 35.7858 154.283ZM40.0539 154.81C39.7357 154.81 39.4548 154.729 39.2112 154.568C38.9676 154.406 38.777 154.177 38.6395 153.882C38.5019 153.586 38.4331 153.235 38.4331 152.831C38.4331 152.43 38.5019 152.082 38.6395 151.787C38.777 151.492 38.9684 151.264 39.2137 151.103C39.459 150.942 39.7423 150.862 40.0638 150.862C40.3124 150.862 40.5088 150.904 40.653 150.986C40.7988 151.068 40.9098 151.16 40.9861 151.265C41.064 151.368 41.1244 151.452 41.1675 151.518H41.2172V149.639H41.8039V154.73H41.2371V154.143H41.1675C41.1244 154.213 41.0631 154.301 40.9836 154.407C40.904 154.511 40.7905 154.605 40.643 154.688C40.4955 154.769 40.2992 154.81 40.0539 154.81ZM40.1334 154.283C40.3688 154.283 40.5676 154.221 40.73 154.099C40.8924 153.974 41.0159 153.803 41.1004 153.584C41.1849 153.364 41.2272 153.109 41.2272 152.821C41.2272 152.536 41.1858 152.286 41.1029 152.073C41.02 151.857 40.8974 151.69 40.735 151.571C40.5726 151.45 40.3721 151.389 40.1334 151.389C39.8849 151.389 39.6777 151.453 39.512 151.58C39.3479 151.706 39.2245 151.878 39.1416 152.095C39.0604 152.31 39.0198 152.552 39.0198 152.821C39.0198 153.093 39.0612 153.34 39.1441 153.562C39.2286 153.782 39.3529 153.958 39.517 154.089C39.6827 154.218 39.8882 154.283 40.1334 154.283ZM45.3064 156.162C45.2069 156.162 45.1183 156.154 45.0404 156.137C44.9625 156.122 44.9086 156.107 44.8788 156.092L45.028 155.575C45.1705 155.612 45.2964 155.625 45.4058 155.615C45.5152 155.605 45.6121 155.556 45.6966 155.468C45.7828 155.382 45.8615 155.242 45.9328 155.048L46.0422 154.75L44.6302 150.912H45.2666L46.3206 153.954H46.3604L47.4143 150.912H48.0507L46.43 155.287C46.357 155.484 46.2667 155.647 46.159 155.777C46.0513 155.907 45.9262 156.004 45.7836 156.067C45.6428 156.13 45.4837 156.162 45.3064 156.162ZM50.2394 154.81C49.8947 154.81 49.5923 154.728 49.3321 154.563C49.0736 154.399 48.8714 154.17 48.7256 153.875C48.5814 153.58 48.5093 153.235 48.5093 152.841C48.5093 152.443 48.5814 152.096 48.7256 151.799C48.8714 151.503 49.0736 151.272 49.3321 151.108C49.5923 150.944 49.8947 150.862 50.2394 150.862C50.5841 150.862 50.8857 150.944 51.1443 151.108C51.4044 151.272 51.6066 151.503 51.7508 151.799C51.8966 152.096 51.9695 152.443 51.9695 152.841C51.9695 153.235 51.8966 153.58 51.7508 153.875C51.6066 154.17 51.4044 154.399 51.1443 154.563C50.8857 154.728 50.5841 154.81 50.2394 154.81ZM50.2394 154.283C50.5013 154.283 50.7167 154.215 50.8857 154.081C51.0548 153.947 51.1799 153.77 51.2611 153.552C51.3423 153.333 51.3829 153.096 51.3829 152.841C51.3829 152.586 51.3423 152.348 51.2611 152.127C51.1799 151.907 51.0548 151.729 50.8857 151.593C50.7167 151.457 50.5013 151.389 50.2394 151.389C49.9776 151.389 49.7622 151.457 49.5931 151.593C49.4241 151.729 49.299 151.907 49.2178 152.127C49.1366 152.348 49.096 152.586 49.096 152.841C49.096 153.096 49.1366 153.333 49.2178 153.552C49.299 153.77 49.4241 153.947 49.5931 154.081C49.7622 154.215 49.9776 154.283 50.2394 154.283ZM55.2713 153.169V150.912H55.858V154.73H55.2713V154.084H55.2315C55.142 154.278 55.0028 154.442 54.8139 154.578C54.625 154.713 54.3864 154.78 54.098 154.78C53.8594 154.78 53.6473 154.728 53.4616 154.623C53.276 154.517 53.1302 154.358 53.0241 154.146C52.9181 153.932 52.8651 153.663 52.8651 153.338V150.912H53.4517V153.298C53.4517 153.577 53.5296 153.799 53.6854 153.964C53.8428 154.13 54.0433 154.213 54.2869 154.213C54.4328 154.213 54.5811 154.176 54.7319 154.101C54.8844 154.027 55.012 153.912 55.1147 153.758C55.2191 153.604 55.2713 153.408 55.2713 153.169ZM56.9324 154.73V150.912H57.4992V151.489H57.539C57.6086 151.3 57.7345 151.146 57.9168 151.029C58.0991 150.911 58.3046 150.852 58.5333 150.852C58.5764 150.852 58.6302 150.853 58.6949 150.855C58.7595 150.856 58.8084 150.859 58.8415 150.862V151.459C58.8216 151.454 58.7761 151.446 58.7048 151.436C58.6352 151.425 58.5615 151.419 58.4836 151.419C58.298 151.419 58.1323 151.458 57.9864 151.536C57.8422 151.612 57.7279 151.718 57.6434 151.854C57.5605 151.988 57.5191 152.141 57.5191 152.314V154.73H56.9324ZM63.0568 154.81C62.6989 154.81 62.3906 154.725 62.1321 154.556C61.8736 154.387 61.6747 154.154 61.5355 153.857C61.3963 153.561 61.3267 153.222 61.3267 152.841C61.3267 152.453 61.398 152.111 61.5405 151.814C61.6847 151.516 61.8852 151.283 62.142 151.116C62.4006 150.947 62.7022 150.862 63.0469 150.862C63.3153 150.862 63.5573 150.912 63.7727 151.011C63.9882 151.111 64.1647 151.25 64.3022 151.429C64.4397 151.608 64.5251 151.817 64.5582 152.055H63.9716C63.9268 151.881 63.8274 151.727 63.6733 151.593C63.5208 151.457 63.3153 151.389 63.0568 151.389C62.8281 151.389 62.6276 151.449 62.4553 151.568C62.2846 151.686 62.1512 151.852 62.055 152.068C61.9606 152.281 61.9134 152.533 61.9134 152.821C61.9134 153.116 61.9598 153.373 62.0526 153.592C62.147 153.81 62.2796 153.98 62.4503 154.101C62.6226 154.222 62.8248 154.283 63.0568 154.283C63.2093 154.283 63.3477 154.256 63.4719 154.203C63.5962 154.15 63.7015 154.074 63.7876 153.974C63.8738 153.875 63.9351 153.756 63.9716 153.616H64.5582C64.5251 153.842 64.4431 154.045 64.3121 154.225C64.1829 154.404 64.0114 154.547 63.7976 154.653C63.5855 154.757 63.3385 154.81 63.0568 154.81ZM65.4158 154.73V150.912H65.9826V151.489H66.0224C66.092 151.3 66.2179 151.146 66.4002 151.029C66.5825 150.911 66.788 150.852 67.0167 150.852C67.0598 150.852 67.1136 150.853 67.1783 150.855C67.2429 150.856 67.2918 150.859 67.3249 150.862V151.459C67.305 151.454 67.2595 151.446 67.1882 151.436C67.1186 151.425 67.0449 151.419 66.967 151.419C66.7814 151.419 66.6156 151.458 66.4698 151.536C66.3256 151.612 66.2113 151.718 66.1268 151.854C66.0439 151.988 66.0025 152.141 66.0025 152.314V154.73H65.4158ZM69.505 154.81C69.1371 154.81 68.8197 154.728 68.5529 154.566C68.2878 154.402 68.0831 154.173 67.9389 153.88C67.7964 153.585 67.7251 153.242 67.7251 152.851C67.7251 152.46 67.7964 152.115 67.9389 151.817C68.0831 151.517 68.2836 151.283 68.5405 151.116C68.799 150.947 69.1006 150.862 69.4453 150.862C69.6442 150.862 69.8406 150.895 70.0344 150.962C70.2283 151.028 70.4048 151.136 70.5639 151.285C70.723 151.432 70.8498 151.628 70.9442 151.871C71.0387 152.115 71.0859 152.415 71.0859 152.771V153.02H68.1428V152.513H70.4893C70.4893 152.297 70.4463 152.105 70.3601 151.936C70.2756 151.767 70.1546 151.634 69.9972 151.536C69.8414 151.438 69.6574 151.389 69.4453 151.389C69.2116 151.389 69.0095 151.447 68.8388 151.563C68.6697 151.677 68.5397 151.827 68.4485 152.011C68.3574 152.194 68.3118 152.392 68.3118 152.602V152.94C68.3118 153.229 68.3615 153.473 68.4609 153.674C68.562 153.872 68.7021 154.024 68.881 154.128C69.06 154.231 69.268 154.283 69.505 154.283C69.6591 154.283 69.7983 154.261 69.9226 154.218C70.0485 154.173 70.1571 154.107 70.2482 154.019C70.3394 153.93 70.4098 153.819 70.4595 153.686L71.0263 153.845C70.9666 154.037 70.8664 154.206 70.7255 154.352C70.5846 154.496 70.4106 154.609 70.2035 154.69C69.9963 154.77 69.7635 154.81 69.505 154.81ZM73.4201 154.81C73.1019 154.81 72.821 154.729 72.5774 154.568C72.3338 154.406 72.1432 154.177 72.0057 153.882C71.8681 153.586 71.7994 153.235 71.7994 152.831C71.7994 152.43 71.8681 152.082 72.0057 151.787C72.1432 151.492 72.3346 151.264 72.5799 151.103C72.8252 150.942 73.1085 150.862 73.43 150.862C73.6786 150.862 73.875 150.904 74.0192 150.986C74.165 151.068 74.276 151.16 74.3523 151.265C74.4302 151.368 74.4906 151.452 74.5337 151.518H74.5835V149.639H75.1701V154.73H74.6033V154.143H74.5337C74.4906 154.213 74.4293 154.301 74.3498 154.407C74.2702 154.511 74.1567 154.605 74.0092 154.688C73.8617 154.769 73.6654 154.81 73.4201 154.81ZM73.4996 154.283C73.735 154.283 73.9338 154.221 74.0962 154.099C74.2586 153.974 74.3821 153.803 74.4666 153.584C74.5511 153.364 74.5934 153.109 74.5934 152.821C74.5934 152.536 74.552 152.286 74.4691 152.073C74.3862 151.857 74.2636 151.69 74.1012 151.571C73.9388 151.45 73.7383 151.389 73.4996 151.389C73.2511 151.389 73.0439 151.453 72.8782 151.58C72.7141 151.706 72.5907 151.878 72.5078 152.095C72.4266 152.31 72.386 152.552 72.386 152.821C72.386 153.093 72.4274 153.34 72.5103 153.562C72.5948 153.782 72.7191 153.958 72.8832 154.089C73.0489 154.218 73.2544 154.283 73.4996 154.283ZM76.326 154.73V150.912H76.9126V154.73H76.326ZM76.6243 150.275C76.5099 150.275 76.4113 150.237 76.3285 150.159C76.2473 150.081 76.2067 149.987 76.2067 149.878C76.2067 149.768 76.2473 149.675 76.3285 149.597C76.4113 149.519 76.5099 149.48 76.6243 149.48C76.7386 149.48 76.8364 149.519 76.9176 149.597C77.0005 149.675 77.0419 149.768 77.0419 149.878C77.0419 149.987 77.0005 150.081 76.9176 150.159C76.8364 150.237 76.7386 150.275 76.6243 150.275ZM79.6476 150.912V151.409H77.6689V150.912H79.6476ZM78.2456 149.997H78.8323V153.636C78.8323 153.802 78.8563 153.926 78.9044 154.009C78.9541 154.09 79.0171 154.145 79.0933 154.173C79.1712 154.2 79.2532 154.213 79.3394 154.213C79.404 154.213 79.4571 154.21 79.4985 154.203C79.5399 154.195 79.5731 154.188 79.5979 154.183L79.7172 154.71C79.6775 154.725 79.622 154.74 79.5507 154.755C79.4794 154.771 79.3891 154.78 79.2797 154.78C79.114 154.78 78.9516 154.744 78.7925 154.673C78.6351 154.602 78.5042 154.493 78.3998 154.347C78.297 154.201 78.2456 154.017 78.2456 153.795V149.997ZM84.05 154.81C83.692 154.81 83.3838 154.725 83.1253 154.556C82.8667 154.387 82.6679 154.154 82.5287 153.857C82.3895 153.561 82.3199 153.222 82.3199 152.841C82.3199 152.453 82.3911 152.111 82.5336 151.814C82.6778 151.516 82.8783 151.283 83.1352 151.116C83.3937 150.947 83.6953 150.862 84.04 150.862C84.3085 150.862 84.5505 150.912 84.7659 151.011C84.9813 151.111 85.1578 151.25 85.2954 151.429C85.4329 151.608 85.5183 151.817 85.5514 152.055H84.9648C84.92 151.881 84.8206 151.727 84.6665 151.593C84.514 151.457 84.3085 151.389 84.05 151.389C83.8213 151.389 83.6208 151.449 83.4484 151.568C83.2777 151.686 83.1443 151.852 83.0482 152.068C82.9537 152.281 82.9065 152.533 82.9065 152.821C82.9065 153.116 82.9529 153.373 83.0457 153.592C83.1402 153.81 83.2728 153.98 83.4434 154.101C83.6158 154.222 83.818 154.283 84.05 154.283C84.2024 154.283 84.3408 154.256 84.4651 154.203C84.5894 154.15 84.6946 154.074 84.7808 153.974C84.867 153.875 84.9283 153.756 84.9648 153.616H85.5514C85.5183 153.842 85.4362 154.045 85.3053 154.225C85.176 154.404 85.0045 154.547 84.7907 154.653C84.5786 154.757 84.3317 154.81 84.05 154.81ZM87.5326 154.819C87.2906 154.819 87.0711 154.774 86.8738 154.683C86.6766 154.59 86.52 154.457 86.404 154.283C86.288 154.107 86.23 153.895 86.23 153.646C86.23 153.427 86.2731 153.25 86.3593 153.114C86.4455 152.977 86.5606 152.869 86.7048 152.791C86.849 152.713 87.0081 152.655 87.1821 152.617C87.3577 152.577 87.5342 152.546 87.7116 152.523C87.9436 152.493 88.1317 152.47 88.2758 152.455C88.4217 152.439 88.5277 152.412 88.594 152.373C88.662 152.335 88.6959 152.269 88.6959 152.175V152.155C88.6959 151.909 88.6288 151.719 88.4946 151.583C88.362 151.447 88.1607 151.379 87.8905 151.379C87.6105 151.379 87.3909 151.44 87.2318 151.563C87.0727 151.686 86.9608 151.817 86.8962 151.956L86.3394 151.757C86.4388 151.525 86.5714 151.344 86.7371 151.215C86.9045 151.084 87.0868 150.993 87.284 150.942C87.4829 150.889 87.6784 150.862 87.8706 150.862C87.9933 150.862 88.1341 150.877 88.2932 150.907C88.454 150.935 88.6089 150.994 88.7581 151.083C88.9089 151.173 89.034 151.308 89.1334 151.489C89.2329 151.669 89.2826 151.911 89.2826 152.214V154.73H88.6959V154.213H88.6661C88.6263 154.296 88.56 154.384 88.4672 154.479C88.3744 154.573 88.251 154.654 88.0969 154.72C87.9427 154.786 87.7546 154.819 87.5326 154.819ZM87.6221 154.292C87.8541 154.292 88.0496 154.247 88.2087 154.156C88.3695 154.065 88.4904 153.947 88.5716 153.803C88.6545 153.659 88.6959 153.507 88.6959 153.348V152.811C88.6711 152.841 88.6164 152.868 88.5319 152.893C88.449 152.916 88.3529 152.937 88.2435 152.955C88.1358 152.972 88.0306 152.987 87.9278 153C87.8267 153.011 87.7447 153.021 87.6817 153.03C87.5293 153.05 87.3867 153.082 87.2542 153.127C87.1233 153.17 87.0172 153.235 86.936 153.323C86.8564 153.409 86.8167 153.527 86.8167 153.676C86.8167 153.88 86.8921 154.034 87.0429 154.138C87.1953 154.241 87.3884 154.292 87.6221 154.292ZM90.3533 154.73V150.912H90.9201V151.489H90.9599C91.0295 151.3 91.1554 151.146 91.3377 151.029C91.52 150.911 91.7255 150.852 91.9542 150.852C91.9973 150.852 92.0511 150.853 92.1158 150.855C92.1804 150.856 92.2293 150.859 92.2624 150.862V151.459C92.2425 151.454 92.197 151.446 92.1257 151.436C92.0561 151.425 91.9824 151.419 91.9045 151.419C91.7189 151.419 91.5531 151.458 91.4073 151.536C91.2631 151.612 91.1488 151.718 91.0643 151.854C90.9814 151.988 90.94 152.141 90.94 152.314V154.73H90.3533ZM94.2834 154.81C93.9652 154.81 93.6843 154.729 93.4407 154.568C93.1971 154.406 93.0065 154.177 92.869 153.882C92.7314 153.586 92.6626 153.235 92.6626 152.831C92.6626 152.43 92.7314 152.082 92.869 151.787C93.0065 151.492 93.1979 151.264 93.4432 151.103C93.6884 150.942 93.9718 150.862 94.2933 150.862C94.5419 150.862 94.7383 150.904 94.8825 150.986C95.0283 151.068 95.1393 151.16 95.2156 151.265C95.2934 151.368 95.3539 151.452 95.397 151.518H95.4467V149.639H96.0334V154.73H95.4666V154.143H95.397C95.3539 154.213 95.2926 154.301 95.2131 154.407C95.1335 154.511 95.02 154.605 94.8725 154.688C94.725 154.769 94.5286 154.81 94.2834 154.81ZM94.3629 154.283C94.5982 154.283 94.7971 154.221 94.9595 154.099C95.1219 153.974 95.2454 153.803 95.3299 153.584C95.4144 153.364 95.4567 153.109 95.4567 152.821C95.4567 152.536 95.4152 152.286 95.3324 152.073C95.2495 151.857 95.1269 151.69 94.9645 151.571C94.8021 151.45 94.6016 151.389 94.3629 151.389C94.1143 151.389 93.9072 151.453 93.7415 151.58C93.5774 151.706 93.454 151.878 93.3711 152.095C93.2899 152.31 93.2493 152.552 93.2493 152.821C93.2493 153.093 93.2907 153.34 93.3736 153.562C93.4581 153.782 93.5824 153.958 93.7464 154.089C93.9122 154.218 94.1177 154.283 94.3629 154.283ZM99.7447 152.433V154.73H99.158V149.639H99.7447V151.508H99.7944C99.8839 151.311 100.018 151.155 100.197 151.039C100.378 150.921 100.618 150.862 100.918 150.862C101.178 150.862 101.406 150.914 101.602 151.019C101.797 151.121 101.949 151.28 102.056 151.493C102.166 151.706 102.221 151.976 102.221 152.304V154.73H101.634V152.344C101.634 152.04 101.555 151.806 101.398 151.64C101.242 151.473 101.026 151.389 100.749 151.389C100.557 151.389 100.384 151.43 100.232 151.511C100.081 151.592 99.9618 151.711 99.8739 151.866C99.7878 152.022 99.7447 152.211 99.7447 152.433ZM104.895 154.81C104.527 154.81 104.209 154.728 103.943 154.566C103.677 154.402 103.473 154.173 103.329 153.88C103.186 153.585 103.115 153.242 103.115 152.851C103.115 152.46 103.186 152.115 103.329 151.817C103.473 151.517 103.673 151.283 103.93 151.116C104.189 150.947 104.49 150.862 104.835 150.862C105.034 150.862 105.23 150.895 105.424 150.962C105.618 151.028 105.794 151.136 105.954 151.285C106.113 151.432 106.239 151.628 106.334 151.871C106.428 152.115 106.476 152.415 106.476 152.771V153.02H103.532V152.513H105.879C105.879 152.297 105.836 152.105 105.75 151.936C105.665 151.767 105.544 151.634 105.387 151.536C105.231 151.438 105.047 151.389 104.835 151.389C104.601 151.389 104.399 151.447 104.228 151.563C104.059 151.677 103.929 151.827 103.838 152.011C103.747 152.194 103.701 152.392 103.701 152.602V152.94C103.701 153.229 103.751 153.473 103.851 153.674C103.952 153.872 104.092 154.024 104.271 154.128C104.45 154.231 104.658 154.283 104.895 154.283C105.049 154.283 105.188 154.261 105.312 154.218C105.438 154.173 105.547 154.107 105.638 154.019C105.729 153.93 105.799 153.819 105.849 153.686L106.416 153.845C106.356 154.037 106.256 154.206 106.115 154.352C105.974 154.496 105.8 154.609 105.593 154.69C105.386 154.77 105.153 154.81 104.895 154.81ZM107.368 154.73V150.912H107.935V151.489H107.975C108.044 151.3 108.17 151.146 108.352 151.029C108.535 150.911 108.74 150.852 108.969 150.852C109.012 150.852 109.066 150.853 109.13 150.855C109.195 150.856 109.244 150.859 109.277 150.862V151.459C109.257 151.454 109.212 151.446 109.14 151.436C109.071 151.425 108.997 151.419 108.919 151.419C108.734 151.419 108.568 151.458 108.422 151.536C108.278 151.612 108.163 151.718 108.079 151.854C107.996 151.988 107.955 152.141 107.955 152.314V154.73H107.368ZM111.457 154.81C111.089 154.81 110.772 154.728 110.505 154.566C110.24 154.402 110.035 154.173 109.891 153.88C109.749 153.585 109.677 153.242 109.677 152.851C109.677 152.46 109.749 152.115 109.891 151.817C110.035 151.517 110.236 151.283 110.493 151.116C110.751 150.947 111.053 150.862 111.397 150.862C111.596 150.862 111.793 150.895 111.987 150.962C112.18 151.028 112.357 151.136 112.516 151.285C112.675 151.432 112.802 151.628 112.896 151.871C112.991 152.115 113.038 152.415 113.038 152.771V153.02H110.095V152.513H112.441C112.441 152.297 112.398 152.105 112.312 151.936C112.228 151.767 112.107 151.634 111.949 151.536C111.794 151.438 111.61 151.389 111.397 151.389C111.164 151.389 110.962 151.447 110.791 151.563C110.622 151.677 110.492 151.827 110.401 152.011C110.31 152.194 110.264 152.392 110.264 152.602V152.94C110.264 153.229 110.314 153.473 110.413 153.674C110.514 153.872 110.654 154.024 110.833 154.128C111.012 154.231 111.22 154.283 111.457 154.283C111.611 154.283 111.75 154.261 111.875 154.218C112.001 154.173 112.109 154.107 112.2 154.019C112.292 153.93 112.362 153.819 112.412 153.686L112.978 153.845C112.919 154.037 112.819 154.206 112.678 154.352C112.537 154.496 112.363 154.609 112.156 154.69C111.948 154.77 111.716 154.81 111.457 154.81Z" fill="#A0A0A0"/>
</svg>
