<svg width="118" height="156" viewBox="0 0 118 156" fill="none" xmlns="http://www.w3.org/2000/svg">
<path d="M79.5199 47C71.1399 47 62.6299 46.66 54.6599 44.44C46.8399 42.27 39.6599 38.06 33.2599 33.19C29.0599 30.02 25.2599 27.49 19.8099 27.87C14.4872 28.1651 9.40036 30.1634 5.29993 33.57C-1.63007 39.63 -0.580065 50.84 2.17994 58.72C6.34994 70.59 18.9999 78.84 29.7699 84.21C42.1999 90.42 55.8499 94 69.5499 96.1C81.5499 97.93 96.9599 99.25 107.36 91.42C116.92 84.22 119.54 67.77 117.2 56.67C116.629 53.3898 114.879 50.431 112.28 48.35C105.57 43.44 95.5599 46.72 88.0199 46.88C85.2199 47 82.3799 47 79.5199 47Z" fill="#F2F2F2"/>
<path d="M59.0301 115.56C79.3044 115.56 95.7401 114.535 95.7401 113.27C95.7401 112.005 79.3044 110.98 59.0301 110.98C38.7557 110.98 22.3201 112.005 22.3201 113.27C22.3201 114.535 38.7557 115.56 59.0301 115.56Z" fill="#F2F2F2"/>
<path d="M77.8401 2.17997C78.3813 2.17997 78.8201 1.74121 78.8201 1.19997C78.8201 0.658733 78.3813 0.219971 77.8401 0.219971C77.2989 0.219971 76.8601 0.658733 76.8601 1.19997C76.8601 1.74121 77.2989 2.17997 77.8401 2.17997Z" fill="#CFCFCF"/>
<path d="M33.0501 97.29C33.5913 97.29 34.0301 96.8513 34.0301 96.31C34.0301 95.7688 33.5913 95.33 33.0501 95.33C32.5088 95.33 32.0701 95.7688 32.0701 96.31C32.0701 96.8513 32.5088 97.29 33.0501 97.29Z" fill="#CFCFCF"/>
<path d="M89.3899 102.3V106.6" stroke="#BABABA" stroke-linecap="round" stroke-linejoin="round"/>
<path d="M87.23 104.45H91.54" stroke="#BABABA" stroke-linecap="round" stroke-linejoin="round"/>
<path d="M57.4499 5.88C46.8413 5.88 36.6671 10.0943 29.1657 17.5957C21.6642 25.0972 17.45 35.2713 17.45 45.88C17.45 75.24 57.4499 102.73 57.4499 102.73C57.4499 102.73 97.45 75.66 97.45 45.88C97.45 35.2713 93.2357 25.0972 85.7342 17.5957C78.2328 10.0943 68.0586 5.88 57.4499 5.88ZM57.4499 60.88C54.3346 60.88 51.2892 59.9567 48.6983 58.2267C46.1075 56.4968 44.0875 54.0377 42.8935 51.1603C41.6995 48.2829 41.385 45.1161 41.9899 42.0601C42.5948 39.004 44.0918 36.1958 46.2919 33.9901C48.492 31.7845 51.2964 30.2803 54.3509 29.6677C57.4054 29.0551 60.5729 29.3615 63.4534 30.5482C66.3338 31.7349 68.798 33.7487 70.5345 36.3351C72.271 38.9216 73.202 41.9647 73.2099 45.08C73.2073 49.259 71.546 53.2661 68.591 56.2211C65.636 59.1761 61.6289 60.8374 57.4499 60.84V60.88Z" fill="white" stroke="#BABABA" stroke-linecap="round" stroke-linejoin="round"/>
<path d="M15.1299 13.29V17.59" stroke="#BABABA" stroke-linecap="round" stroke-linejoin="round"/>
<path d="M12.97 15.44H17.28" stroke="#BABABA" stroke-linecap="round" stroke-linejoin="round"/>
<path d="M104.65 24.99V29.29" stroke="#BABABA" stroke-linecap="round" stroke-linejoin="round"/>
<path d="M102.49 27.14H106.8" stroke="#BABABA" stroke-linecap="round" stroke-linejoin="round"/>
<path d="M62.7599 39.23L52.1399 49.86" stroke="#BABABA" stroke-linecap="round" stroke-linejoin="round"/>
<path d="M52.1399 39.23L62.7599 49.86" stroke="#BABABA" stroke-linecap="round" stroke-linejoin="round"/>
<path d="M24.0499 135.18V142.41H23.3599C23.2532 142.41 23.1632 142.393 23.0899 142.36C23.0199 142.323 22.9516 142.263 22.8849 142.18L19.1099 137.36C19.1299 137.58 19.1399 137.783 19.1399 137.97V142.41H17.9549V135.18H18.6599C18.7166 135.18 18.7649 135.183 18.8049 135.19C18.8482 135.193 18.8849 135.203 18.9149 135.22C18.9482 135.233 18.9799 135.255 19.0099 135.285C19.0399 135.312 19.0732 135.348 19.1099 135.395L22.8999 140.235C22.8899 140.118 22.8816 140.003 22.8749 139.89C22.8682 139.777 22.8649 139.672 22.8649 139.575V135.18H24.0499ZM27.5787 137.2C27.9587 137.2 28.3037 137.262 28.6137 137.385C28.9271 137.508 29.1937 137.683 29.4137 137.91C29.6371 138.137 29.8087 138.413 29.9287 138.74C30.0487 139.067 30.1087 139.432 30.1087 139.835C30.1087 140.242 30.0487 140.608 29.9287 140.935C29.8087 141.262 29.6371 141.54 29.4137 141.77C29.1937 142 28.9271 142.177 28.6137 142.3C28.3037 142.423 27.9587 142.485 27.5787 142.485C27.1954 142.485 26.8471 142.423 26.5337 142.3C26.2204 142.177 25.9521 142 25.7287 141.77C25.5087 141.54 25.3371 141.262 25.2137 140.935C25.0937 140.608 25.0337 140.242 25.0337 139.835C25.0337 139.432 25.0937 139.067 25.2137 138.74C25.3371 138.413 25.5087 138.137 25.7287 137.91C25.9521 137.683 26.2204 137.508 26.5337 137.385C26.8471 137.262 27.1954 137.2 27.5787 137.2ZM27.5787 141.535C28.0054 141.535 28.3204 141.392 28.5237 141.105C28.7304 140.818 28.8337 140.398 28.8337 139.845C28.8337 139.292 28.7304 138.87 28.5237 138.58C28.3204 138.29 28.0054 138.145 27.5787 138.145C27.1454 138.145 26.8237 138.292 26.6137 138.585C26.4071 138.875 26.3037 139.295 26.3037 139.845C26.3037 140.395 26.4071 140.815 26.6137 141.105C26.8237 141.392 27.1454 141.535 27.5787 141.535ZM37.1655 139.68L36.2855 137.275C36.2422 137.168 36.1972 137.042 36.1505 136.895C36.1039 136.748 36.0572 136.59 36.0105 136.42C35.9672 136.59 35.9222 136.75 35.8755 136.9C35.8289 137.047 35.7839 137.175 35.7405 137.285L34.8655 139.68H37.1655ZM39.5405 142.41H38.5005C38.3839 142.41 38.2889 142.382 38.2155 142.325C38.1422 142.265 38.0872 142.192 38.0505 142.105L37.5105 140.63H34.5155L33.9755 142.105C33.9489 142.182 33.8972 142.252 33.8205 142.315C33.7439 142.378 33.6489 142.41 33.5355 142.41H32.4855L35.3305 135.18H36.7005L39.5405 142.41ZM43.2065 138.59C43.0665 138.42 42.9131 138.3 42.7465 138.23C42.5831 138.16 42.4065 138.125 42.2165 138.125C42.0298 138.125 41.8615 138.16 41.7115 138.23C41.5615 138.3 41.4331 138.407 41.3265 138.55C41.2198 138.69 41.1381 138.87 41.0815 139.09C41.0248 139.307 40.9965 139.563 40.9965 139.86C40.9965 140.16 41.0198 140.415 41.0665 140.625C41.1165 140.832 41.1865 141.002 41.2765 141.135C41.3665 141.265 41.4765 141.36 41.6065 141.42C41.7365 141.477 41.8815 141.505 42.0415 141.505C42.2981 141.505 42.5165 141.452 42.6965 141.345C42.8765 141.238 43.0465 141.087 43.2065 140.89V138.59ZM44.4415 134.98V142.41H43.6865C43.5231 142.41 43.4198 142.335 43.3765 142.185L43.2715 141.69C43.0648 141.927 42.8265 142.118 42.5565 142.265C42.2898 142.412 41.9781 142.485 41.6215 142.485C41.3415 142.485 41.0848 142.427 40.8515 142.31C40.6181 142.193 40.4165 142.025 40.2465 141.805C40.0798 141.582 39.9498 141.307 39.8565 140.98C39.7665 140.653 39.7215 140.28 39.7215 139.86C39.7215 139.48 39.7731 139.127 39.8765 138.8C39.9798 138.473 40.1281 138.19 40.3215 137.95C40.5148 137.71 40.7465 137.523 41.0165 137.39C41.2865 137.253 41.5898 137.185 41.9265 137.185C42.2131 137.185 42.4581 137.23 42.6615 137.32C42.8648 137.41 43.0465 137.532 43.2065 137.685V134.98H44.4415ZM48.8803 138.59C48.7403 138.42 48.587 138.3 48.4203 138.23C48.257 138.16 48.0803 138.125 47.8903 138.125C47.7036 138.125 47.5353 138.16 47.3853 138.23C47.2353 138.3 47.107 138.407 47.0003 138.55C46.8936 138.69 46.812 138.87 46.7553 139.09C46.6986 139.307 46.6703 139.563 46.6703 139.86C46.6703 140.16 46.6936 140.415 46.7403 140.625C46.7903 140.832 46.8603 141.002 46.9503 141.135C47.0403 141.265 47.1503 141.36 47.2803 141.42C47.4103 141.477 47.5553 141.505 47.7153 141.505C47.972 141.505 48.1903 141.452 48.3703 141.345C48.5503 141.238 48.7203 141.087 48.8803 140.89V138.59ZM50.1153 134.98V142.41H49.3603C49.197 142.41 49.0936 142.335 49.0503 142.185L48.9453 141.69C48.7386 141.927 48.5003 142.118 48.2303 142.265C47.9636 142.412 47.652 142.485 47.2953 142.485C47.0153 142.485 46.7586 142.427 46.5253 142.31C46.292 142.193 46.0903 142.025 45.9203 141.805C45.7536 141.582 45.6236 141.307 45.5303 140.98C45.4403 140.653 45.3953 140.28 45.3953 139.86C45.3953 139.48 45.447 139.127 45.5503 138.8C45.6536 138.473 45.802 138.19 45.9953 137.95C46.1886 137.71 46.4203 137.523 46.6903 137.39C46.9603 137.253 47.2636 137.185 47.6003 137.185C47.887 137.185 48.132 137.23 48.3353 137.32C48.5386 137.41 48.7203 137.532 48.8803 137.685V134.98H50.1153ZM52.4991 138.17C52.6591 137.863 52.8491 137.623 53.0691 137.45C53.2891 137.273 53.5491 137.185 53.8491 137.185C54.0858 137.185 54.2758 137.237 54.4191 137.34L54.3391 138.265C54.3225 138.325 54.2975 138.368 54.2641 138.395C54.2341 138.418 54.1925 138.43 54.1391 138.43C54.0891 138.43 54.0141 138.422 53.9141 138.405C53.8175 138.388 53.7225 138.38 53.6291 138.38C53.4925 138.38 53.3708 138.4 53.2641 138.44C53.1575 138.48 53.0608 138.538 52.9741 138.615C52.8908 138.688 52.8158 138.778 52.7491 138.885C52.6858 138.992 52.6258 139.113 52.5691 139.25V142.41H51.3341V137.28H52.0591C52.1858 137.28 52.2741 137.303 52.3241 137.35C52.3741 137.393 52.4075 137.473 52.4241 137.59L52.4991 138.17ZM58.2231 139.255C58.2231 139.095 58.1998 138.945 58.1531 138.805C58.1098 138.662 58.0431 138.537 57.9531 138.43C57.8631 138.323 57.7481 138.24 57.6081 138.18C57.4714 138.117 57.3114 138.085 57.1281 138.085C56.7714 138.085 56.4898 138.187 56.2831 138.39C56.0798 138.593 55.9498 138.882 55.8931 139.255H58.2231ZM55.8681 140C55.8881 140.263 55.9348 140.492 56.0081 140.685C56.0814 140.875 56.1781 141.033 56.2981 141.16C56.4181 141.283 56.5598 141.377 56.7231 141.44C56.8898 141.5 57.0731 141.53 57.2731 141.53C57.4731 141.53 57.6448 141.507 57.7881 141.46C57.9348 141.413 58.0614 141.362 58.1681 141.305C58.2781 141.248 58.3731 141.197 58.4531 141.15C58.5364 141.103 58.6164 141.08 58.6931 141.08C58.7964 141.08 58.8731 141.118 58.9231 141.195L59.2781 141.645C59.1414 141.805 58.9881 141.94 58.8181 142.05C58.6481 142.157 58.4698 142.243 58.2831 142.31C58.0998 142.373 57.9114 142.418 57.7181 142.445C57.5281 142.472 57.3431 142.485 57.1631 142.485C56.8064 142.485 56.4748 142.427 56.1681 142.31C55.8614 142.19 55.5948 142.015 55.3681 141.785C55.1414 141.552 54.9631 141.265 54.8331 140.925C54.7031 140.582 54.6381 140.185 54.6381 139.735C54.6381 139.385 54.6948 139.057 54.8081 138.75C54.9214 138.44 55.0831 138.172 55.2931 137.945C55.5064 137.715 55.7648 137.533 56.0681 137.4C56.3748 137.267 56.7198 137.2 57.1031 137.2C57.4264 137.2 57.7248 137.252 57.9981 137.355C58.2714 137.458 58.5064 137.61 58.7031 137.81C58.8998 138.007 59.0531 138.25 59.1631 138.54C59.2764 138.827 59.3331 139.155 59.3331 139.525C59.3331 139.712 59.3131 139.838 59.2731 139.905C59.2331 139.968 59.1564 140 59.0431 140H55.8681ZM63.3899 138.28C63.3566 138.333 63.3216 138.372 63.2849 138.395C63.2482 138.415 63.2016 138.425 63.1449 138.425C63.0849 138.425 63.0199 138.408 62.9499 138.375C62.8832 138.342 62.8049 138.305 62.7149 138.265C62.6249 138.222 62.5216 138.183 62.4049 138.15C62.2916 138.117 62.1566 138.1 61.9999 138.1C61.7566 138.1 61.5649 138.152 61.4249 138.255C61.2882 138.358 61.2199 138.493 61.2199 138.66C61.2199 138.77 61.2549 138.863 61.3249 138.94C61.3982 139.013 61.4932 139.078 61.6099 139.135C61.7299 139.192 61.8649 139.243 62.0149 139.29C62.1649 139.333 62.3166 139.382 62.4699 139.435C62.6266 139.488 62.7799 139.55 62.9299 139.62C63.0799 139.687 63.2132 139.773 63.3299 139.88C63.4499 139.983 63.5449 140.108 63.6149 140.255C63.6882 140.402 63.7249 140.578 63.7249 140.785C63.7249 141.032 63.6799 141.26 63.5899 141.47C63.5032 141.677 63.3732 141.857 63.1999 142.01C63.0266 142.16 62.8116 142.278 62.5549 142.365C62.3016 142.448 62.0082 142.49 61.6749 142.49C61.4982 142.49 61.3249 142.473 61.1549 142.44C60.9882 142.41 60.8266 142.367 60.6699 142.31C60.5166 142.253 60.3732 142.187 60.2399 142.11C60.1099 142.033 59.9949 141.95 59.8949 141.86L60.1799 141.39C60.2166 141.333 60.2599 141.29 60.3099 141.26C60.3599 141.23 60.4232 141.215 60.4999 141.215C60.5766 141.215 60.6482 141.237 60.7149 141.28C60.7849 141.323 60.8649 141.37 60.9549 141.42C61.0449 141.47 61.1499 141.517 61.2699 141.56C61.3932 141.603 61.5482 141.625 61.7349 141.625C61.8816 141.625 62.0066 141.608 62.1099 141.575C62.2166 141.538 62.3032 141.492 62.3699 141.435C62.4399 141.378 62.4899 141.313 62.5199 141.24C62.5532 141.163 62.5699 141.085 62.5699 141.005C62.5699 140.885 62.5332 140.787 62.4599 140.71C62.3899 140.633 62.2949 140.567 62.1749 140.51C62.0582 140.453 61.9232 140.403 61.7699 140.36C61.6199 140.313 61.4649 140.263 61.3049 140.21C61.1482 140.157 60.9932 140.095 60.8399 140.025C60.6899 139.952 60.5549 139.86 60.4349 139.75C60.3182 139.64 60.2232 139.505 60.1499 139.345C60.0799 139.185 60.0449 138.992 60.0449 138.765C60.0449 138.555 60.0866 138.355 60.1699 138.165C60.2532 137.975 60.3749 137.81 60.5349 137.67C60.6982 137.527 60.8999 137.413 61.1399 137.33C61.3832 137.243 61.6632 137.2 61.9799 137.2C62.3332 137.2 62.6549 137.258 62.9449 137.375C63.2349 137.492 63.4766 137.645 63.6699 137.835L63.3899 138.28ZM67.7844 138.28C67.7511 138.333 67.7161 138.372 67.6794 138.395C67.6428 138.415 67.5961 138.425 67.5394 138.425C67.4794 138.425 67.4144 138.408 67.3444 138.375C67.2778 138.342 67.1994 138.305 67.1094 138.265C67.0194 138.222 66.9161 138.183 66.7994 138.15C66.6861 138.117 66.5511 138.1 66.3944 138.1C66.1511 138.1 65.9594 138.152 65.8194 138.255C65.6828 138.358 65.6144 138.493 65.6144 138.66C65.6144 138.77 65.6494 138.863 65.7194 138.94C65.7928 139.013 65.8878 139.078 66.0044 139.135C66.1244 139.192 66.2594 139.243 66.4094 139.29C66.5594 139.333 66.7111 139.382 66.8644 139.435C67.0211 139.488 67.1744 139.55 67.3244 139.62C67.4744 139.687 67.6078 139.773 67.7244 139.88C67.8444 139.983 67.9394 140.108 68.0094 140.255C68.0828 140.402 68.1194 140.578 68.1194 140.785C68.1194 141.032 68.0744 141.26 67.9844 141.47C67.8978 141.677 67.7678 141.857 67.5944 142.01C67.4211 142.16 67.2061 142.278 66.9494 142.365C66.6961 142.448 66.4028 142.49 66.0694 142.49C65.8928 142.49 65.7194 142.473 65.5494 142.44C65.3828 142.41 65.2211 142.367 65.0644 142.31C64.9111 142.253 64.7678 142.187 64.6344 142.11C64.5044 142.033 64.3894 141.95 64.2894 141.86L64.5744 141.39C64.6111 141.333 64.6544 141.29 64.7044 141.26C64.7544 141.23 64.8178 141.215 64.8944 141.215C64.9711 141.215 65.0428 141.237 65.1094 141.28C65.1794 141.323 65.2594 141.37 65.3494 141.42C65.4394 141.47 65.5444 141.517 65.6644 141.56C65.7878 141.603 65.9428 141.625 66.1294 141.625C66.2761 141.625 66.4011 141.608 66.5044 141.575C66.6111 141.538 66.6978 141.492 66.7644 141.435C66.8344 141.378 66.8844 141.313 66.9144 141.24C66.9478 141.163 66.9644 141.085 66.9644 141.005C66.9644 140.885 66.9278 140.787 66.8544 140.71C66.7844 140.633 66.6894 140.567 66.5694 140.51C66.4528 140.453 66.3178 140.403 66.1644 140.36C66.0144 140.313 65.8594 140.263 65.6994 140.21C65.5428 140.157 65.3878 140.095 65.2344 140.025C65.0844 139.952 64.9494 139.86 64.8294 139.75C64.7128 139.64 64.6178 139.505 64.5444 139.345C64.4744 139.185 64.4394 138.992 64.4394 138.765C64.4394 138.555 64.4811 138.355 64.5644 138.165C64.6478 137.975 64.7694 137.81 64.9294 137.67C65.0928 137.527 65.2944 137.413 65.5344 137.33C65.7778 137.243 66.0578 137.2 66.3744 137.2C66.7278 137.2 67.0494 137.258 67.3394 137.375C67.6294 137.492 67.8711 137.645 68.0644 137.835L67.7844 138.28ZM73.0256 136.25V138.39H75.7356V139.465H73.0256V142.41H71.6756V135.18H76.2356V136.25H73.0256ZM78.9654 137.2C79.3454 137.2 79.6904 137.262 80.0004 137.385C80.3138 137.508 80.5804 137.683 80.8004 137.91C81.0238 138.137 81.1954 138.413 81.3154 138.74C81.4354 139.067 81.4954 139.432 81.4954 139.835C81.4954 140.242 81.4354 140.608 81.3154 140.935C81.1954 141.262 81.0238 141.54 80.8004 141.77C80.5804 142 80.3138 142.177 80.0004 142.3C79.6904 142.423 79.3454 142.485 78.9654 142.485C78.5821 142.485 78.2338 142.423 77.9204 142.3C77.6071 142.177 77.3388 142 77.1154 141.77C76.8954 141.54 76.7238 141.262 76.6004 140.935C76.4804 140.608 76.4204 140.242 76.4204 139.835C76.4204 139.432 76.4804 139.067 76.6004 138.74C76.7238 138.413 76.8954 138.137 77.1154 137.91C77.3388 137.683 77.6071 137.508 77.9204 137.385C78.2338 137.262 78.5821 137.2 78.9654 137.2ZM78.9654 141.535C79.3921 141.535 79.7071 141.392 79.9104 141.105C80.1171 140.818 80.2204 140.398 80.2204 139.845C80.2204 139.292 80.1171 138.87 79.9104 138.58C79.7071 138.29 79.3921 138.145 78.9654 138.145C78.5321 138.145 78.2104 138.292 78.0004 138.585C77.7938 138.875 77.6904 139.295 77.6904 139.845C77.6904 140.395 77.7938 140.815 78.0004 141.105C78.2104 141.392 78.5321 141.535 78.9654 141.535ZM86.8576 137.28V142.41H86.1026C85.9393 142.41 85.836 142.335 85.7926 142.185L85.7076 141.775C85.4976 141.988 85.266 142.162 85.0126 142.295C84.7593 142.425 84.461 142.49 84.1176 142.49C83.8376 142.49 83.5893 142.443 83.3726 142.35C83.1593 142.253 82.9793 142.118 82.8326 141.945C82.686 141.772 82.5743 141.567 82.4976 141.33C82.4243 141.09 82.3876 140.827 82.3876 140.54V137.28H83.6226V140.54C83.6226 140.853 83.6943 141.097 83.8376 141.27C83.9843 141.44 84.2026 141.525 84.4926 141.525C84.706 141.525 84.906 141.478 85.0926 141.385C85.2793 141.288 85.456 141.157 85.6226 140.99V137.28H86.8576ZM89.2372 137.91C89.3405 137.807 89.4488 137.712 89.5622 137.625C89.6788 137.535 89.8005 137.46 89.9272 137.4C90.0572 137.337 90.1955 137.288 90.3422 137.255C90.4888 137.218 90.6488 137.2 90.8222 137.2C91.1022 137.2 91.3505 137.248 91.5672 137.345C91.7838 137.438 91.9638 137.572 92.1072 137.745C92.2538 137.915 92.3638 138.12 92.4372 138.36C92.5138 138.597 92.5522 138.858 92.5522 139.145V142.41H91.3172V139.145C91.3172 138.832 91.2455 138.59 91.1022 138.42C90.9588 138.247 90.7405 138.16 90.4472 138.16C90.2338 138.16 90.0338 138.208 89.8472 138.305C89.6605 138.402 89.4838 138.533 89.3172 138.7V142.41H88.0822V137.28H88.8372C88.9972 137.28 89.1022 137.355 89.1522 137.505L89.2372 137.91ZM96.9467 138.59C96.8067 138.42 96.6534 138.3 96.4867 138.23C96.3234 138.16 96.1467 138.125 95.9567 138.125C95.77 138.125 95.6017 138.16 95.4517 138.23C95.3017 138.3 95.1734 138.407 95.0667 138.55C94.96 138.69 94.8784 138.87 94.8217 139.09C94.765 139.307 94.7367 139.563 94.7367 139.86C94.7367 140.16 94.76 140.415 94.8067 140.625C94.8567 140.832 94.9267 141.002 95.0167 141.135C95.1067 141.265 95.2167 141.36 95.3467 141.42C95.4767 141.477 95.6217 141.505 95.7817 141.505C96.0384 141.505 96.2567 141.452 96.4367 141.345C96.6167 141.238 96.7867 141.087 96.9467 140.89V138.59ZM98.1817 134.98V142.41H97.4267C97.2634 142.41 97.16 142.335 97.1167 142.185L97.0117 141.69C96.805 141.927 96.5667 142.118 96.2967 142.265C96.03 142.412 95.7184 142.485 95.3617 142.485C95.0817 142.485 94.825 142.427 94.5917 142.31C94.3584 142.193 94.1567 142.025 93.9867 141.805C93.82 141.582 93.69 141.307 93.5967 140.98C93.5067 140.653 93.4617 140.28 93.4617 139.86C93.4617 139.48 93.5134 139.127 93.6167 138.8C93.72 138.473 93.8684 138.19 94.0617 137.95C94.255 137.71 94.4867 137.523 94.7567 137.39C95.0267 137.253 95.33 137.185 95.6667 137.185C95.9534 137.185 96.1984 137.23 96.4017 137.32C96.605 137.41 96.7867 137.532 96.9467 137.685V134.98H98.1817Z" fill="#939090"/>
<path d="M32.6165 155V149.909H34.3366C34.736 149.909 35.0625 149.981 35.3161 150.125C35.5713 150.268 35.7602 150.461 35.8828 150.705C36.0054 150.948 36.0668 151.22 36.0668 151.52C36.0668 151.82 36.0054 152.092 35.8828 152.338C35.7618 152.583 35.5746 152.779 35.321 152.924C35.0675 153.069 34.7427 153.141 34.3466 153.141H33.1136V152.594H34.3267C34.6001 152.594 34.8197 152.547 34.9854 152.452C35.1512 152.358 35.2713 152.23 35.3459 152.069C35.4221 151.907 35.4602 151.724 35.4602 151.52C35.4602 151.316 35.4221 151.134 35.3459 150.973C35.2713 150.812 35.1503 150.686 34.983 150.595C34.8156 150.502 34.5935 150.456 34.3168 150.456H33.233V155H32.6165ZM37.5669 149.909V155H36.9803V149.909H37.5669ZM40.2423 155.08C39.8744 155.08 39.557 154.998 39.2902 154.836C39.0251 154.672 38.8204 154.443 38.6762 154.15C38.5337 153.855 38.4624 153.512 38.4624 153.121C38.4624 152.73 38.5337 152.385 38.6762 152.087C38.8204 151.787 39.0209 151.553 39.2778 151.386C39.5363 151.217 39.8379 151.132 40.1826 151.132C40.3815 151.132 40.5779 151.165 40.7718 151.232C40.9656 151.298 41.1421 151.406 41.3012 151.555C41.4603 151.702 41.5871 151.898 41.6816 152.141C41.776 152.385 41.8232 152.685 41.8232 153.041V153.29H38.8801V152.783H41.2267C41.2267 152.567 41.1836 152.375 41.0974 152.206C41.0129 152.037 40.8919 151.904 40.7345 151.806C40.5787 151.708 40.3947 151.659 40.1826 151.659C39.949 151.659 39.7468 151.717 39.5761 151.833C39.407 151.947 39.277 152.097 39.1858 152.281C39.0947 152.464 39.0491 152.662 39.0491 152.872V153.21C39.0491 153.499 39.0988 153.743 39.1982 153.944C39.2993 154.142 39.4394 154.294 39.6183 154.398C39.7973 154.501 40.0053 154.553 40.2423 154.553C40.3964 154.553 40.5356 154.531 40.6599 154.488C40.7858 154.443 40.8944 154.377 40.9855 154.289C41.0767 154.2 41.1471 154.089 41.1968 153.956L41.7636 154.115C41.7039 154.307 41.6037 154.476 41.4628 154.622C41.3219 154.766 41.1479 154.879 40.9408 154.96C40.7336 155.04 40.5008 155.08 40.2423 155.08ZM43.8392 155.089C43.5973 155.089 43.3777 155.044 43.1805 154.953C42.9833 154.86 42.8267 154.727 42.7107 154.553C42.5947 154.377 42.5367 154.165 42.5367 153.916C42.5367 153.697 42.5798 153.52 42.6659 153.384C42.7521 153.247 42.8673 153.139 43.0115 153.061C43.1556 152.983 43.3147 152.925 43.4887 152.887C43.6644 152.847 43.8409 152.816 44.0182 152.793C44.2502 152.763 44.4383 152.74 44.5825 152.725C44.7283 152.709 44.8344 152.682 44.9007 152.643C44.9686 152.605 45.0026 152.539 45.0026 152.445V152.425C45.0026 152.179 44.9355 151.989 44.8012 151.853C44.6686 151.717 44.4673 151.649 44.1972 151.649C43.9171 151.649 43.6975 151.71 43.5384 151.833C43.3794 151.956 43.2675 152.087 43.2029 152.226L42.646 152.027C42.7455 151.795 42.878 151.614 43.0438 151.485C43.2111 151.354 43.3934 151.263 43.5906 151.212C43.7895 151.159 43.9851 151.132 44.1773 151.132C44.2999 151.132 44.4408 151.147 44.5999 151.177C44.7606 151.205 44.9156 151.264 45.0647 151.353C45.2155 151.443 45.3406 151.578 45.4401 151.759C45.5395 151.939 45.5892 152.181 45.5892 152.484V155H45.0026V154.483H44.9727C44.933 154.566 44.8667 154.654 44.7739 154.749C44.6811 154.843 44.5576 154.924 44.4035 154.99C44.2494 155.056 44.0613 155.089 43.8392 155.089ZM43.9287 154.562C44.1607 154.562 44.3563 154.517 44.5154 154.426C44.6761 154.335 44.7971 154.217 44.8783 154.073C44.9611 153.929 45.0026 153.777 45.0026 153.618V153.081C44.9777 153.111 44.923 153.138 44.8385 153.163C44.7557 153.186 44.6595 153.207 44.5502 153.225C44.4424 153.242 44.3372 153.257 44.2345 153.27C44.1334 153.281 44.0513 153.291 43.9884 153.3C43.8359 153.32 43.6934 153.352 43.5608 153.397C43.4299 153.44 43.3238 153.505 43.2426 153.593C43.1631 153.679 43.1233 153.797 43.1233 153.946C43.1233 154.15 43.1987 154.304 43.3495 154.408C43.502 154.511 43.695 154.562 43.9287 154.562ZM49.3645 152.037L48.8375 152.186C48.8044 152.098 48.7555 152.013 48.6909 151.93C48.6279 151.846 48.5417 151.776 48.4324 151.721C48.323 151.667 48.1829 151.639 48.0123 151.639C47.7786 151.639 47.5839 151.693 47.4281 151.801C47.274 151.907 47.1969 152.042 47.1969 152.206C47.1969 152.352 47.2499 152.467 47.356 152.551C47.4621 152.636 47.6278 152.706 47.8532 152.763L48.4199 152.902C48.7613 152.985 49.0157 153.112 49.1831 153.282C49.3504 153.451 49.4341 153.669 49.4341 153.936C49.4341 154.155 49.3712 154.35 49.2452 154.523C49.1209 154.695 48.9469 154.831 48.7232 154.93C48.4995 155.03 48.2393 155.08 47.9426 155.08C47.5532 155.08 47.2309 154.995 46.9757 154.826C46.7205 154.657 46.5589 154.41 46.4909 154.085L47.0478 153.946C47.1008 154.152 47.2011 154.306 47.3485 154.408C47.4977 154.511 47.6924 154.562 47.9327 154.562C48.2061 154.562 48.4232 154.504 48.584 154.388C48.7464 154.271 48.8276 154.13 48.8276 153.966C48.8276 153.833 48.7812 153.722 48.6884 153.633C48.5956 153.542 48.4531 153.474 48.2608 153.429L47.6245 153.28C47.2748 153.197 47.0179 153.069 46.8539 152.895C46.6915 152.719 46.6103 152.499 46.6103 152.236C46.6103 152.02 46.6708 151.83 46.7917 151.664C46.9144 151.498 47.0809 151.368 47.2914 151.274C47.5035 151.179 47.7438 151.132 48.0123 151.132C48.3901 151.132 48.6867 151.215 48.9022 151.381C49.1193 151.546 49.2734 151.765 49.3645 152.037ZM51.9181 155.08C51.5502 155.08 51.2328 154.998 50.966 154.836C50.7008 154.672 50.4962 154.443 50.352 154.15C50.2095 153.855 50.1382 153.512 50.1382 153.121C50.1382 152.73 50.2095 152.385 50.352 152.087C50.4962 151.787 50.6967 151.553 50.9536 151.386C51.2121 151.217 51.5137 151.132 51.8584 151.132C52.0573 151.132 52.2536 151.165 52.4475 151.232C52.6414 151.298 52.8179 151.406 52.977 151.555C53.1361 151.702 53.2629 151.898 53.3573 152.141C53.4518 152.385 53.499 152.685 53.499 153.041V153.29H50.5558V152.783H52.9024C52.9024 152.567 52.8593 152.375 52.7732 152.206C52.6887 152.037 52.5677 151.904 52.4102 151.806C52.2545 151.708 52.0705 151.659 51.8584 151.659C51.6247 151.659 51.4226 151.717 51.2519 151.833C51.0828 151.947 50.9527 152.097 50.8616 152.281C50.7704 152.464 50.7249 152.662 50.7249 152.872V153.21C50.7249 153.499 50.7746 153.743 50.874 153.944C50.9751 154.142 51.1151 154.294 51.2941 154.398C51.4731 154.501 51.6811 154.553 51.9181 154.553C52.0722 154.553 52.2114 154.531 52.3357 154.488C52.4616 154.443 52.5702 154.377 52.6613 154.289C52.7525 154.2 52.8229 154.089 52.8726 153.956L53.4394 154.115C53.3797 154.307 53.2794 154.476 53.1386 154.622C52.9977 154.766 52.8237 154.879 52.6166 154.96C52.4094 155.04 52.1766 155.08 51.9181 155.08ZM57.4838 155.089C57.2418 155.089 57.0222 155.044 56.825 154.953C56.6278 154.86 56.4712 154.727 56.3552 154.553C56.2392 154.377 56.1812 154.165 56.1812 153.916C56.1812 153.697 56.2243 153.52 56.3105 153.384C56.3966 153.247 56.5118 153.139 56.656 153.061C56.8002 152.983 56.9593 152.925 57.1333 152.887C57.3089 152.847 57.4854 152.816 57.6627 152.793C57.8947 152.763 58.0828 152.74 58.227 152.725C58.3728 152.709 58.4789 152.682 58.5452 152.643C58.6131 152.605 58.6471 152.539 58.6471 152.445V152.425C58.6471 152.179 58.58 151.989 58.4458 151.853C58.3132 151.717 58.1118 151.649 57.8417 151.649C57.5616 151.649 57.3421 151.71 57.183 151.833C57.0239 151.956 56.912 152.087 56.8474 152.226L56.2906 152.027C56.39 151.795 56.5226 151.614 56.6883 151.485C56.8557 151.354 57.038 151.263 57.2352 151.212C57.434 151.159 57.6296 151.132 57.8218 151.132C57.9445 151.132 58.0853 151.147 58.2444 151.177C58.4052 151.205 58.5601 151.264 58.7093 151.353C58.8601 151.443 58.9852 151.578 59.0846 151.759C59.184 151.939 59.2338 152.181 59.2338 152.484V155H58.6471V154.483H58.6173C58.5775 154.566 58.5112 154.654 58.4184 154.749C58.3256 154.843 58.2021 154.924 58.048 154.99C57.8939 155.056 57.7058 155.089 57.4838 155.089ZM57.5732 154.562C57.8052 154.562 58.0008 154.517 58.1599 154.426C58.3206 154.335 58.4416 154.217 58.5228 154.073C58.6057 153.929 58.6471 153.777 58.6471 153.618V153.081C58.6222 153.111 58.5676 153.138 58.483 153.163C58.4002 153.186 58.3041 153.207 58.1947 153.225C58.087 153.242 57.9817 153.257 57.879 153.27C57.7779 153.281 57.6959 153.291 57.6329 153.3C57.4804 153.32 57.3379 153.352 57.2053 153.397C57.0744 153.44 56.9684 153.505 56.8872 153.593C56.8076 153.679 56.7678 153.797 56.7678 153.946C56.7678 154.15 56.8432 154.304 56.9941 154.408C57.1465 154.511 57.3396 154.562 57.5732 154.562ZM61.7463 155.08C61.4281 155.08 61.1472 154.999 60.9036 154.838C60.66 154.676 60.4694 154.447 60.3319 154.152C60.1943 153.856 60.1255 153.505 60.1255 153.101C60.1255 152.7 60.1943 152.352 60.3319 152.057C60.4694 151.762 60.6608 151.534 60.9061 151.373C61.1513 151.212 61.4347 151.132 61.7562 151.132C62.0048 151.132 62.2012 151.174 62.3453 151.256C62.4912 151.338 62.6022 151.43 62.6784 151.535C62.7563 151.638 62.8168 151.722 62.8599 151.788H62.9096V149.909H63.4963V155H62.9295V154.413H62.8599C62.8168 154.483 62.7555 154.571 62.676 154.677C62.5964 154.781 62.4829 154.875 62.3354 154.958C62.1879 155.039 61.9915 155.08 61.7463 155.08ZM61.8258 154.553C62.0611 154.553 62.26 154.491 62.4224 154.369C62.5848 154.244 62.7083 154.073 62.7928 153.854C62.8773 153.634 62.9196 153.379 62.9196 153.091C62.9196 152.806 62.8781 152.556 62.7953 152.343C62.7124 152.127 62.5898 151.96 62.4274 151.841C62.265 151.72 62.0645 151.659 61.8258 151.659C61.5772 151.659 61.3701 151.723 61.2044 151.85C61.0403 151.976 60.9168 152.148 60.834 152.365C60.7528 152.58 60.7122 152.822 60.7122 153.091C60.7122 153.363 60.7536 153.61 60.8365 153.832C60.921 154.052 61.0453 154.228 61.2093 154.359C61.3751 154.488 61.5806 154.553 61.8258 154.553ZM66.0939 155.08C65.7757 155.08 65.4949 154.999 65.2512 154.838C65.0076 154.676 64.8171 154.447 64.6795 154.152C64.542 153.856 64.4732 153.505 64.4732 153.101C64.4732 152.7 64.542 152.352 64.6795 152.057C64.8171 151.762 65.0085 151.534 65.2537 151.373C65.499 151.212 65.7824 151.132 66.1039 151.132C66.3525 151.132 66.5488 151.174 66.693 151.256C66.8388 151.338 66.9499 151.43 67.0261 151.535C67.104 151.638 67.1645 151.722 67.2076 151.788H67.2573V149.909H67.8439V155H67.2772V154.413H67.2076C67.1645 154.483 67.1032 154.571 67.0236 154.677C66.9441 154.781 66.8306 154.875 66.6831 154.958C66.5356 155.039 66.3392 155.08 66.0939 155.08ZM66.1735 154.553C66.4088 154.553 66.6077 154.491 66.7701 154.369C66.9325 154.244 67.0559 154.073 67.1404 153.854C67.225 153.634 67.2672 153.379 67.2672 153.091C67.2672 152.806 67.2258 152.556 67.1429 152.343C67.0601 152.127 66.9374 151.96 66.775 151.841C66.6126 151.72 66.4121 151.659 66.1735 151.659C65.9249 151.659 65.7177 151.723 65.552 151.85C65.388 151.976 65.2645 152.148 65.1816 152.365C65.1004 152.58 65.0598 152.822 65.0598 153.091C65.0598 153.363 65.1013 153.61 65.1841 153.832C65.2686 154.052 65.3929 154.228 65.557 154.359C65.7227 154.488 65.9282 154.553 66.1735 154.553ZM72.5197 155.08C72.175 155.08 71.8726 154.998 71.6124 154.833C71.3539 154.669 71.1517 154.44 71.0059 154.145C70.8617 153.85 70.7896 153.505 70.7896 153.111C70.7896 152.713 70.8617 152.366 71.0059 152.069C71.1517 151.773 71.3539 151.542 71.6124 151.378C71.8726 151.214 72.175 151.132 72.5197 151.132C72.8644 151.132 73.166 151.214 73.4245 151.378C73.6847 151.542 73.8869 151.773 74.0311 152.069C74.1769 152.366 74.2498 152.713 74.2498 153.111C74.2498 153.505 74.1769 153.85 74.0311 154.145C73.8869 154.44 73.6847 154.669 73.4245 154.833C73.166 154.998 72.8644 155.08 72.5197 155.08ZM72.5197 154.553C72.7815 154.553 72.997 154.485 73.166 154.351C73.335 154.217 73.4602 154.04 73.5414 153.822C73.6226 153.603 73.6632 153.366 73.6632 153.111C73.6632 152.856 73.6226 152.618 73.5414 152.397C73.4602 152.177 73.335 151.999 73.166 151.863C72.997 151.727 72.7815 151.659 72.5197 151.659C72.2579 151.659 72.0424 151.727 71.8734 151.863C71.7044 151.999 71.5792 152.177 71.498 152.397C71.4168 152.618 71.3762 152.856 71.3762 153.111C71.3762 153.366 71.4168 153.603 71.498 153.822C71.5792 154.04 71.7044 154.217 71.8734 154.351C72.0424 154.485 72.2579 154.553 72.5197 154.553ZM75.732 152.703V155H75.1453V151.182H75.7121V151.778H75.7618C75.8513 151.585 75.9872 151.429 76.1695 151.311C76.3518 151.192 76.5871 151.132 76.8754 151.132C77.134 151.132 77.3602 151.185 77.5541 151.291C77.748 151.396 77.8988 151.555 78.0065 151.768C78.1142 151.981 78.1681 152.249 78.1681 152.574V155H77.5814V152.614C77.5814 152.314 77.5035 152.08 77.3477 151.913C77.192 151.744 76.9782 151.659 76.7064 151.659C76.5191 151.659 76.3518 151.7 76.2043 151.781C76.0584 151.862 75.9433 151.981 75.8588 152.136C75.7742 152.292 75.732 152.481 75.732 152.703ZM80.8409 155.08C80.473 155.08 80.1557 154.998 79.8888 154.836C79.6237 154.672 79.419 154.443 79.2749 154.15C79.1323 153.855 79.0611 153.512 79.0611 153.121C79.0611 152.73 79.1323 152.385 79.2749 152.087C79.419 151.787 79.6196 151.553 79.8764 151.386C80.1349 151.217 80.4366 151.132 80.7812 151.132C80.9801 151.132 81.1765 151.165 81.3704 151.232C81.5643 151.298 81.7408 151.406 81.8999 151.555C82.0589 151.702 82.1857 151.898 82.2802 152.141C82.3746 152.385 82.4219 152.685 82.4219 153.041V153.29H79.4787V152.783H81.8253C81.8253 152.567 81.7822 152.375 81.696 152.206C81.6115 152.037 81.4905 151.904 81.3331 151.806C81.1773 151.708 80.9934 151.659 80.7812 151.659C80.5476 151.659 80.3454 151.717 80.1747 151.833C80.0057 151.947 79.8756 152.097 79.7844 152.281C79.6933 152.464 79.6477 152.662 79.6477 152.872V153.21C79.6477 153.499 79.6974 153.743 79.7969 153.944C79.898 154.142 80.038 154.294 80.217 154.398C80.396 154.501 80.6039 154.553 80.8409 154.553C80.995 154.553 81.1342 154.531 81.2585 154.488C81.3845 154.443 81.493 154.377 81.5842 154.289C81.6753 154.2 81.7457 154.089 81.7955 153.956L82.3622 154.115C82.3026 154.307 82.2023 154.476 82.0614 154.622C81.9206 154.766 81.7466 154.879 81.5394 154.96C81.3323 155.04 81.0994 155.08 80.8409 155.08Z" fill="#A0A0A0"/>
</svg>
