<svg width="25" height="21" viewBox="0 0 25 21" fill="none" xmlns="http://www.w3.org/2000/svg">
<path fill-rule="evenodd" clip-rule="evenodd" d="M7.23129 0.360207C8.9122 0.482007 10.6637 1.3014 12.3403 2.95975C14.0166 1.30186 15.7665 0.48403 17.4459 0.364939C19.3412 0.230522 21.0167 0.99655 22.2291 2.20514C24.6124 4.58138 25.3609 8.88118 22.4034 11.8387C22.3935 11.8487 22.3832 11.8585 22.3727 11.8679L12.9158 20.4341C12.5892 20.7298 12.0915 20.7298 11.7649 20.4341L2.30791 11.8679C2.29746 11.8585 2.28724 11.8487 2.27726 11.8387C-0.695704 8.86577 0.0487619 4.56547 2.44002 2.19108C3.65526 0.984396 5.33421 0.222756 7.23129 0.360207Z" fill="white"/>
</svg>
