<svg width="23" height="25" viewBox="0 0 23 25" fill="none" xmlns="http://www.w3.org/2000/svg">
<path fill-rule="evenodd" clip-rule="evenodd" d="M6.92256 1.79032C6.85659 1.13329 6.30361 0.633057 5.64327 0.633057H1.65315C0.943066 0.633057 0.367432 1.20869 0.367432 1.91877C0.367432 2.62885 0.943066 3.20449 1.65315 3.20449H4.4802L4.91153 7.50034C4.91137 7.53037 4.9128 7.56052 4.91583 7.5907L5.74254 15.8104C5.74398 15.8247 5.74578 15.8389 5.74793 15.8531C5.83664 16.4381 6.13378 16.9713 6.58458 17.3545C7.03404 17.7364 7.60604 17.9437 8.19577 17.9384H18.2267C18.7532 17.9605 19.2731 17.8125 19.7092 17.516C20.1522 17.2147 20.4844 16.7768 20.6551 16.269L20.656 16.2664L22.7788 9.88215L22.7793 9.88014C22.901 9.51121 22.9333 9.11867 22.8736 8.73483C22.8141 8.35234 22.665 7.98939 22.4384 7.67561C22.2011 7.34274 21.8845 7.07442 21.5171 6.89502C21.1549 6.71813 20.7548 6.63327 20.3522 6.64779H7.41029L6.92256 1.79032ZM19.9189 22.4807C19.9189 21.3656 19.0149 20.4616 17.8998 20.4616C16.7845 20.4616 15.8805 21.3656 15.8805 22.4807C15.8805 23.5959 16.7845 24.5 17.8998 24.5C19.0149 24.5 19.9189 23.5959 19.9189 22.4807ZM9.07801 20.4616C10.1932 20.4616 11.0972 21.3656 11.0972 22.4807C11.0972 23.5959 10.1932 24.5 9.07801 24.5C7.96284 24.5 7.05882 23.5959 7.05882 22.4807C7.05882 21.3656 7.96284 20.4616 9.07801 20.4616Z" fill="white"/>
</svg>
