<svg width="25" height="25" viewBox="0 0 25 25" fill="none" xmlns="http://www.w3.org/2000/svg">
<path d="M21.1733 5.10999C20.6626 4.599 20.0562 4.19364 19.3887 3.91708C18.7212 3.64052 18.0058 3.49817 17.2833 3.49817C16.5609 3.49817 15.8454 3.64052 15.178 3.91708C14.5105 4.19364 13.9041 4.599 13.3933 5.10999L12.3333 6.16999L11.2733 5.10999C10.2416 4.0783 8.84237 3.4987 7.38334 3.4987C5.92431 3.4987 4.52503 4.0783 3.49334 5.10999C2.46165 6.14169 1.88205 7.54096 1.88205 8.99999C1.88205 10.459 2.46165 11.8583 3.49334 12.89L12.3333 21.73L21.1733 12.89C21.6843 12.3792 22.0897 11.7728 22.3663 11.1053C22.6428 10.4379 22.7852 9.72248 22.7852 8.99999C22.7852 8.27751 22.6428 7.5621 22.3663 6.89464C22.0897 6.22718 21.6843 5.62075 21.1733 5.10999Z" stroke="#9DB2CE" stroke-width="1.5" stroke-linecap="round" stroke-linejoin="round"/>
</svg>
