<svg width="119" height="163" viewBox="0 0 119 163" fill="none" xmlns="http://www.w3.org/2000/svg">
<path d="M80.16 39.17C71.7899 39.17 63.27 38.83 55.2999 36.61C47.4799 34.44 40.2999 30.23 33.8999 25.36C29.7099 22.19 25.8999 19.66 20.4599 20.04C15.138 20.328 10.0487 22.3153 5.93995 25.71C-0.980052 31.77 0.0599475 43 2.82995 50.86C6.98995 62.73 19.6499 71 30.4099 76.35C42.84 82.56 56.5 86.17 70.1899 88.24C82.1899 90.07 97.6099 91.39 108.01 83.56C117.56 76.35 120.18 59.91 117.84 48.81C117.272 45.5309 115.526 42.5721 112.93 40.49C106.22 35.58 96.2099 38.86 88.6699 39.02C85.8699 39.08 83.02 39.15 80.16 39.17Z" fill="#F2F2F2"/>
<path d="M60.0801 107.7C80.3545 107.7 96.7901 106.675 96.7901 105.41C96.7901 104.145 80.3545 103.12 60.0801 103.12C39.8057 103.12 23.3701 104.145 23.3701 105.41C23.3701 106.675 39.8057 107.7 60.0801 107.7Z" fill="#F2F2F2"/>
<path d="M8.28003 17.12L21.28 16.02C22.9011 15.878 24.5218 16.2973 25.8707 17.2075C27.2196 18.1177 28.2149 19.4636 28.69 21.02L41.15 62.72L38.71 67.09C38.0833 68.216 37.7739 69.4909 37.8149 70.7789C37.8558 72.0669 38.2455 73.3196 38.9424 74.4035C39.6394 75.4874 40.6174 76.3619 41.7723 76.9336C42.9271 77.5053 44.2155 77.7529 45.5 77.65L95.4 73.41" stroke="#BABABA" stroke-linecap="round" stroke-linejoin="round"/>
<path d="M30.55 27.35L88.5501 22.43C89.1214 22.381 89.6965 22.4613 90.2325 22.665C90.7686 22.8686 91.252 23.1903 91.6468 23.6062C92.0416 24.0221 92.3376 24.5216 92.5131 25.0675C92.6885 25.6135 92.7387 26.192 92.6601 26.76L88.7301 55.13C88.6107 55.9812 88.2085 56.7675 87.5882 57.3624C86.9679 57.9573 86.1655 58.3263 85.31 58.41L41.1501 62.72L30.55 27.35Z" fill="white" stroke="#BABABA" stroke-linecap="round" stroke-linejoin="round"/>
<path d="M51.0501 87.21C53.6514 87.21 55.7601 85.1013 55.7601 82.5C55.7601 79.8987 53.6514 77.79 51.0501 77.79C48.4488 77.79 46.3401 79.8987 46.3401 82.5C46.3401 85.1013 48.4488 87.21 51.0501 87.21Z" fill="white" stroke="#BABABA" stroke-linecap="round" stroke-linejoin="round"/>
<path d="M83.8499 84.43C86.4512 84.43 88.5599 82.3213 88.5599 79.72C88.5599 77.1187 86.4512 75.01 83.8499 75.01C81.2486 75.01 79.1399 77.1187 79.1399 79.72C79.1399 82.3213 81.2486 84.43 83.8499 84.43Z" fill="white" stroke="#BABABA" stroke-linecap="round" stroke-linejoin="round"/>
<path d="M18.5746 14.894L6.3186 15.9339C5.2565 16.0241 4.46856 16.9581 4.55868 18.0202C4.6488 19.0823 5.58286 19.8702 6.64495 19.7801L18.9009 18.7402C19.963 18.6501 20.7509 17.716 20.6608 16.6539C20.5707 15.5918 19.6366 14.8039 18.5746 14.894Z" fill="#D2D2D2"/>
<path d="M54.97 49.26C55.2091 47.4349 56.065 45.7465 57.3957 44.4747C58.7263 43.2029 60.4517 42.4242 62.2857 42.2678C64.1197 42.1113 65.9521 42.5866 67.4789 43.6146C69.0057 44.6427 70.1352 46.1618 70.68 47.92" stroke="#BABABA" stroke-linecap="round" stroke-linejoin="round"/>
<path d="M70.8099 38.47C71.4285 38.47 71.9299 37.9686 71.9299 37.35C71.9299 36.7315 71.4285 36.23 70.8099 36.23C70.1914 36.23 69.6899 36.7315 69.6899 37.35C69.6899 37.9686 70.1914 38.47 70.8099 38.47Z" fill="#BABABA"/>
<path d="M53.0599 39.97C53.6785 39.97 54.1799 39.4686 54.1799 38.85C54.1799 38.2315 53.6785 37.73 53.0599 37.73C52.4414 37.73 51.9399 38.2315 51.9399 38.85C51.9399 39.4686 52.4414 39.97 53.0599 39.97Z" fill="#BABABA"/>
<path d="M21.51 81.11V85.42" stroke="#BABABA" stroke-linecap="round" stroke-linejoin="round"/>
<path d="M19.3601 83.26H23.6601" stroke="#BABABA" stroke-linecap="round" stroke-linejoin="round"/>
<path d="M90.22 0.98999V5.28999" stroke="#BABABA" stroke-linecap="round" stroke-linejoin="round"/>
<path d="M88.0701 3.14001H92.3701" stroke="#BABABA" stroke-linecap="round" stroke-linejoin="round"/>
<path d="M39.3101 13.84V18.14" stroke="#BABABA" stroke-linecap="round" stroke-linejoin="round"/>
<path d="M37.1499 15.99H41.4599" stroke="#BABABA" stroke-linecap="round" stroke-linejoin="round"/>
<path d="M100.95 29.65C101.513 29.65 101.97 29.1933 101.97 28.63C101.97 28.0667 101.513 27.61 100.95 27.61C100.387 27.61 99.9299 28.0667 99.9299 28.63C99.9299 29.1933 100.387 29.65 100.95 29.65Z" fill="white" stroke="#BABABA" stroke-linecap="round" stroke-linejoin="round"/>
<path d="M62.8301 20.48C63.3713 20.48 63.8101 20.0412 63.8101 19.5C63.8101 18.9587 63.3713 18.52 62.8301 18.52C62.2889 18.52 61.8501 18.9587 61.8501 19.5C61.8501 20.0412 62.2889 20.48 62.8301 20.48Z" fill="#CFCFCF"/>
<path d="M69.4099 91.6C69.9512 91.6 70.3899 91.1613 70.3899 90.62C70.3899 90.0788 69.9512 89.64 69.4099 89.64C68.8687 89.64 68.4299 90.0788 68.4299 90.62C68.4299 91.1613 68.8687 91.6 69.4099 91.6Z" fill="#CFCFCF"/>
<path d="M40.9701 139.6V146.83H40.2801C40.1734 146.83 40.0834 146.813 40.0101 146.78C39.9401 146.743 39.8717 146.683 39.8051 146.6L36.0301 141.78C36.0501 142 36.0601 142.203 36.0601 142.39V146.83H34.8751V139.6H35.5801C35.6367 139.6 35.6851 139.603 35.7251 139.61C35.7684 139.613 35.8051 139.623 35.8351 139.64C35.8684 139.653 35.9001 139.675 35.9301 139.705C35.9601 139.732 35.9934 139.768 36.0301 139.815L39.8201 144.655C39.8101 144.538 39.8017 144.423 39.7951 144.31C39.7884 144.197 39.7851 144.092 39.7851 143.995V139.6H40.9701ZM44.4989 141.62C44.8789 141.62 45.2239 141.682 45.5339 141.805C45.8472 141.928 46.1139 142.103 46.3339 142.33C46.5572 142.557 46.7289 142.833 46.8489 143.16C46.9689 143.487 47.0289 143.852 47.0289 144.255C47.0289 144.662 46.9689 145.028 46.8489 145.355C46.7289 145.682 46.5572 145.96 46.3339 146.19C46.1139 146.42 45.8472 146.597 45.5339 146.72C45.2239 146.843 44.8789 146.905 44.4989 146.905C44.1156 146.905 43.7672 146.843 43.4539 146.72C43.1406 146.597 42.8722 146.42 42.6489 146.19C42.4289 145.96 42.2572 145.682 42.1339 145.355C42.0139 145.028 41.9539 144.662 41.9539 144.255C41.9539 143.852 42.0139 143.487 42.1339 143.16C42.2572 142.833 42.4289 142.557 42.6489 142.33C42.8722 142.103 43.1406 141.928 43.4539 141.805C43.7672 141.682 44.1156 141.62 44.4989 141.62ZM44.4989 145.955C44.9256 145.955 45.2406 145.812 45.4439 145.525C45.6506 145.238 45.7539 144.818 45.7539 144.265C45.7539 143.712 45.6506 143.29 45.4439 143C45.2406 142.71 44.9256 142.565 44.4989 142.565C44.0656 142.565 43.7439 142.712 43.5339 143.005C43.3272 143.295 43.2239 143.715 43.2239 144.265C43.2239 144.815 43.3272 145.235 43.5339 145.525C43.7439 145.812 44.0656 145.955 44.4989 145.955ZM52.9477 143.235C53.1944 143.235 53.4094 143.205 53.5927 143.145C53.7761 143.082 53.9277 142.993 54.0477 142.88C54.1711 142.763 54.2627 142.623 54.3227 142.46C54.3827 142.293 54.4127 142.108 54.4127 141.905C54.4127 141.712 54.3827 141.537 54.3227 141.38C54.2627 141.223 54.1727 141.09 54.0527 140.98C53.9327 140.87 53.7811 140.787 53.5977 140.73C53.4144 140.67 53.1977 140.64 52.9477 140.64H51.9427V143.235H52.9477ZM52.9477 139.6C53.4311 139.6 53.8494 139.657 54.2027 139.77C54.5561 139.883 54.8477 140.042 55.0777 140.245C55.3077 140.448 55.4777 140.692 55.5877 140.975C55.7011 141.258 55.7577 141.568 55.7577 141.905C55.7577 142.255 55.6994 142.577 55.5827 142.87C55.4661 143.16 55.2911 143.41 55.0577 143.62C54.8244 143.83 54.5311 143.993 54.1777 144.11C53.8277 144.227 53.4177 144.285 52.9477 144.285H51.9427V146.83H50.5977V139.6H52.9477ZM57.681 142.59C57.841 142.283 58.031 142.043 58.251 141.87C58.471 141.693 58.731 141.605 59.031 141.605C59.2677 141.605 59.4577 141.657 59.601 141.76L59.521 142.685C59.5043 142.745 59.4793 142.788 59.446 142.815C59.416 142.838 59.3743 142.85 59.321 142.85C59.271 142.85 59.196 142.842 59.096 142.825C58.9993 142.808 58.9043 142.8 58.811 142.8C58.6743 142.8 58.5527 142.82 58.446 142.86C58.3393 142.9 58.2427 142.958 58.156 143.035C58.0727 143.108 57.9977 143.198 57.931 143.305C57.8677 143.412 57.8077 143.533 57.751 143.67V146.83H56.516V141.7H57.241C57.3677 141.7 57.456 141.723 57.506 141.77C57.556 141.813 57.5893 141.893 57.606 142.01L57.681 142.59ZM62.37 141.62C62.75 141.62 63.095 141.682 63.405 141.805C63.7183 141.928 63.985 142.103 64.205 142.33C64.4283 142.557 64.6 142.833 64.72 143.16C64.84 143.487 64.9 143.852 64.9 144.255C64.9 144.662 64.84 145.028 64.72 145.355C64.6 145.682 64.4283 145.96 64.205 146.19C63.985 146.42 63.7183 146.597 63.405 146.72C63.095 146.843 62.75 146.905 62.37 146.905C61.9867 146.905 61.6383 146.843 61.325 146.72C61.0117 146.597 60.7433 146.42 60.52 146.19C60.3 145.96 60.1283 145.682 60.005 145.355C59.885 145.028 59.825 144.662 59.825 144.255C59.825 143.852 59.885 143.487 60.005 143.16C60.1283 142.833 60.3 142.557 60.52 142.33C60.7433 142.103 61.0117 141.928 61.325 141.805C61.6383 141.682 61.9867 141.62 62.37 141.62ZM62.37 145.955C62.7967 145.955 63.1117 145.812 63.315 145.525C63.5217 145.238 63.625 144.818 63.625 144.265C63.625 143.712 63.5217 143.29 63.315 143C63.1117 142.71 62.7967 142.565 62.37 142.565C61.9367 142.565 61.615 142.712 61.405 143.005C61.1983 143.295 61.095 143.715 61.095 144.265C61.095 144.815 61.1983 145.235 61.405 145.525C61.615 145.812 61.9367 145.955 62.37 145.955ZM69.0622 143.01C68.9222 142.84 68.7688 142.72 68.6022 142.65C68.4388 142.58 68.2622 142.545 68.0722 142.545C67.8855 142.545 67.7172 142.58 67.5672 142.65C67.4172 142.72 67.2888 142.827 67.1822 142.97C67.0755 143.11 66.9938 143.29 66.9372 143.51C66.8805 143.727 66.8522 143.983 66.8522 144.28C66.8522 144.58 66.8755 144.835 66.9222 145.045C66.9722 145.252 67.0422 145.422 67.1322 145.555C67.2222 145.685 67.3322 145.78 67.4622 145.84C67.5922 145.897 67.7372 145.925 67.8972 145.925C68.1538 145.925 68.3722 145.872 68.5522 145.765C68.7322 145.658 68.9022 145.507 69.0622 145.31V143.01ZM70.2972 139.4V146.83H69.5422C69.3788 146.83 69.2755 146.755 69.2322 146.605L69.1272 146.11C68.9205 146.347 68.6822 146.538 68.4122 146.685C68.1455 146.832 67.8338 146.905 67.4772 146.905C67.1972 146.905 66.9405 146.847 66.7072 146.73C66.4738 146.613 66.2722 146.445 66.1022 146.225C65.9355 146.002 65.8055 145.727 65.7122 145.4C65.6222 145.073 65.5772 144.7 65.5772 144.28C65.5772 143.9 65.6288 143.547 65.7322 143.22C65.8355 142.893 65.9838 142.61 66.1772 142.37C66.3705 142.13 66.6022 141.943 66.8722 141.81C67.1422 141.673 67.4455 141.605 67.7822 141.605C68.0688 141.605 68.3138 141.65 68.5172 141.74C68.7205 141.83 68.9022 141.952 69.0622 142.105V139.4H70.2972ZM75.936 141.7V146.83H75.181C75.0177 146.83 74.9143 146.755 74.871 146.605L74.786 146.195C74.576 146.408 74.3443 146.582 74.091 146.715C73.8377 146.845 73.5393 146.91 73.196 146.91C72.916 146.91 72.6677 146.863 72.451 146.77C72.2377 146.673 72.0577 146.538 71.911 146.365C71.7643 146.192 71.6527 145.987 71.576 145.75C71.5027 145.51 71.466 145.247 71.466 144.96V141.7H72.701V144.96C72.701 145.273 72.7727 145.517 72.916 145.69C73.0627 145.86 73.281 145.945 73.571 145.945C73.7843 145.945 73.9843 145.898 74.171 145.805C74.3577 145.708 74.5343 145.577 74.701 145.41V141.7H75.936ZM80.8355 142.785C80.7989 142.832 80.7622 142.868 80.7255 142.895C80.6922 142.922 80.6422 142.935 80.5755 142.935C80.5122 142.935 80.4505 142.917 80.3905 142.88C80.3305 142.84 80.2589 142.797 80.1755 142.75C80.0922 142.7 79.9922 142.657 79.8755 142.62C79.7622 142.58 79.6205 142.56 79.4505 142.56C79.2339 142.56 79.0439 142.6 78.8805 142.68C78.7172 142.757 78.5805 142.868 78.4705 143.015C78.3639 143.162 78.2839 143.34 78.2305 143.55C78.1772 143.757 78.1505 143.992 78.1505 144.255C78.1505 144.528 78.1789 144.772 78.2355 144.985C78.2955 145.198 78.3805 145.378 78.4905 145.525C78.6005 145.668 78.7339 145.778 78.8905 145.855C79.0472 145.928 79.2239 145.965 79.4205 145.965C79.6172 145.965 79.7755 145.942 79.8955 145.895C80.0189 145.845 80.1222 145.792 80.2055 145.735C80.2889 145.675 80.3605 145.622 80.4205 145.575C80.4839 145.525 80.5539 145.5 80.6305 145.5C80.7305 145.5 80.8055 145.538 80.8555 145.615L81.2105 146.065C81.0739 146.225 80.9255 146.36 80.7655 146.47C80.6055 146.577 80.4389 146.663 80.2655 146.73C80.0955 146.793 79.9189 146.838 79.7355 146.865C79.5555 146.892 79.3755 146.905 79.1955 146.905C78.8789 146.905 78.5805 146.847 78.3005 146.73C78.0205 146.61 77.7755 146.437 77.5655 146.21C77.3555 145.983 77.1889 145.707 77.0655 145.38C76.9455 145.05 76.8855 144.675 76.8855 144.255C76.8855 143.878 76.9389 143.53 77.0455 143.21C77.1555 142.887 77.3155 142.608 77.5255 142.375C77.7355 142.138 77.9955 141.953 78.3055 141.82C78.6155 141.687 78.9722 141.62 79.3755 141.62C79.7589 141.62 80.0939 141.682 80.3805 141.805C80.6705 141.928 80.9305 142.105 81.1605 142.335L80.8355 142.785ZM83.6948 146.91C83.2481 146.91 82.9048 146.785 82.6648 146.535C82.4281 146.282 82.3098 145.933 82.3098 145.49V142.625H81.7848C81.7181 142.625 81.6614 142.603 81.6148 142.56C81.5681 142.517 81.5448 142.452 81.5448 142.365V141.875L82.3698 141.74L82.6298 140.34C82.6464 140.273 82.6781 140.222 82.7248 140.185C82.7714 140.148 82.8314 140.13 82.9048 140.13H83.5448V141.745H84.9148V142.625H83.5448V145.405C83.5448 145.565 83.5831 145.69 83.6598 145.78C83.7398 145.87 83.8481 145.915 83.9848 145.915C84.0614 145.915 84.1248 145.907 84.1748 145.89C84.2281 145.87 84.2731 145.85 84.3098 145.83C84.3498 145.81 84.3848 145.792 84.4148 145.775C84.4448 145.755 84.4748 145.745 84.5048 145.745C84.5414 145.745 84.5714 145.755 84.5948 145.775C84.6181 145.792 84.6431 145.818 84.6698 145.855L85.0398 146.455C84.8598 146.605 84.6531 146.718 84.4198 146.795C84.1864 146.872 83.9448 146.91 83.6948 146.91Z" fill="#939090"/>
<path d="M20.1344 158.579V160.504C19.8824 160.686 19.6129 160.822 19.3259 160.913C19.0413 161.002 18.7286 161.046 18.3879 161.046C17.9843 161.046 17.6203 160.984 17.2959 160.861C16.9716 160.735 16.6939 160.56 16.4629 160.336C16.2343 160.109 16.0581 159.839 15.9344 159.524C15.8108 159.209 15.7489 158.862 15.7489 158.484C15.7489 158.101 15.8084 157.753 15.9274 157.438C16.0488 157.123 16.2203 156.853 16.4419 156.629C16.6636 156.403 16.9331 156.228 17.2504 156.104C17.5678 155.98 17.9224 155.919 18.3144 155.919C18.5128 155.919 18.6971 155.934 18.8674 155.964C19.0378 155.992 19.1953 156.034 19.3399 156.09C19.4846 156.144 19.6188 156.21 19.7424 156.29C19.8661 156.367 19.9816 156.454 20.0889 156.552L19.8964 156.86C19.8661 156.907 19.8264 156.937 19.7774 156.951C19.7308 156.963 19.6783 156.951 19.6199 156.916C19.5639 156.883 19.4998 156.844 19.4274 156.797C19.3551 156.75 19.2664 156.706 19.1614 156.664C19.0588 156.62 18.9363 156.582 18.7939 156.552C18.6539 156.522 18.4871 156.507 18.2934 156.507C18.0111 156.507 17.7556 156.553 17.5269 156.647C17.2983 156.738 17.1034 156.869 16.9424 157.042C16.7814 157.212 16.6578 157.42 16.5714 157.665C16.4851 157.908 16.4419 158.181 16.4419 158.484C16.4419 158.799 16.4863 159.081 16.5749 159.331C16.6659 159.578 16.7943 159.79 16.9599 159.965C17.1279 160.137 17.3309 160.269 17.5689 160.36C17.8069 160.451 18.0741 160.497 18.3704 160.497C18.6038 160.497 18.8103 160.471 18.9899 160.42C19.1719 160.366 19.3493 160.292 19.5219 160.199V159.097H18.7414C18.6971 159.097 18.6609 159.084 18.6329 159.058C18.6073 159.032 18.5944 159.001 18.5944 158.964V158.579H20.1344ZM22.4802 157.389C22.7392 157.389 22.9725 157.432 23.1802 157.518C23.3879 157.604 23.5652 157.727 23.7122 157.886C23.8592 158.044 23.9712 158.237 24.0482 158.463C24.1275 158.687 24.1672 158.938 24.1672 159.216C24.1672 159.496 24.1275 159.748 24.0482 159.972C23.9712 160.196 23.8592 160.387 23.7122 160.546C23.5652 160.704 23.3879 160.827 23.1802 160.913C22.9725 160.997 22.7392 161.039 22.4802 161.039C22.2189 161.039 21.9832 160.997 21.7732 160.913C21.5655 160.827 21.3882 160.704 21.2412 160.546C21.0942 160.387 20.981 160.196 20.9017 159.972C20.8247 159.748 20.7862 159.496 20.7862 159.216C20.7862 158.938 20.8247 158.687 20.9017 158.463C20.981 158.237 21.0942 158.044 21.2412 157.886C21.3882 157.727 21.5655 157.604 21.7732 157.518C21.9832 157.432 22.2189 157.389 22.4802 157.389ZM22.4802 160.553C22.8302 160.553 23.0915 160.436 23.2642 160.203C23.4369 159.967 23.5232 159.639 23.5232 159.219C23.5232 158.797 23.4369 158.468 23.2642 158.232C23.0915 157.996 22.8302 157.879 22.4802 157.879C22.3029 157.879 22.1477 157.909 22.0147 157.97C21.884 158.03 21.7744 158.118 21.6857 158.232C21.5994 158.346 21.534 158.488 21.4897 158.656C21.4477 158.821 21.4267 159.009 21.4267 159.219C21.4267 159.639 21.513 159.967 21.6857 160.203C21.8607 160.436 22.1255 160.553 22.4802 160.553ZM26.9864 160.99V157.977L26.5944 157.931C26.543 157.919 26.5022 157.902 26.4719 157.879C26.4415 157.853 26.4264 157.817 26.4264 157.77V157.515H26.9864V157.319C26.9864 157.102 27.0202 156.903 27.0879 156.724C27.1555 156.542 27.257 156.385 27.3924 156.255C27.5277 156.124 27.6957 156.022 27.8964 155.95C28.0994 155.878 28.3339 155.842 28.5999 155.842C28.6885 155.842 28.7795 155.847 28.8729 155.859C28.9662 155.871 29.0467 155.888 29.1144 155.912L29.0899 156.237C29.0875 156.26 29.0782 156.277 29.0619 156.286C29.0479 156.295 29.028 156.301 29.0024 156.304C28.9767 156.306 28.944 156.307 28.9044 156.307C28.867 156.305 28.8239 156.304 28.7749 156.304C28.3595 156.304 28.0585 156.39 27.8719 156.563C27.6852 156.733 27.5919 156.991 27.5919 157.336V157.515H29.7339V160.99H29.1074V157.966H27.6094V160.99H26.9864ZM31.3422 157.959C31.4192 157.873 31.5009 157.795 31.5872 157.725C31.6736 157.655 31.7646 157.595 31.8602 157.546C31.9582 157.495 32.0609 157.456 32.1682 157.431C32.2779 157.403 32.3957 157.389 32.5217 157.389C32.7154 157.389 32.8857 157.421 33.0327 157.487C33.1821 157.55 33.3057 157.641 33.4037 157.76C33.5041 157.876 33.5799 158.017 33.6312 158.183C33.6826 158.349 33.7082 158.532 33.7082 158.733V160.99H33.0817V158.733C33.0817 158.464 33.0199 158.257 32.8962 158.11C32.7749 157.96 32.5894 157.886 32.3397 157.886C32.1554 157.886 31.9827 157.93 31.8217 158.019C31.6631 158.107 31.5161 158.227 31.3807 158.379V160.99H30.7542V157.445H31.1287C31.2174 157.445 31.2722 157.488 31.2932 157.574L31.3422 157.959ZM36.9676 158.288C36.8509 158.132 36.7249 158.023 36.5896 157.963C36.4542 157.9 36.3026 157.868 36.1346 157.868C35.8056 157.868 35.5524 157.986 35.3751 158.222C35.1977 158.457 35.1091 158.793 35.1091 159.23C35.1091 159.461 35.1289 159.659 35.1686 159.825C35.2082 159.988 35.2666 160.123 35.3436 160.231C35.4206 160.336 35.5151 160.413 35.6271 160.462C35.7391 160.511 35.8662 160.535 36.0086 160.535C36.2139 160.535 36.3924 160.488 36.5441 160.395C36.6981 160.302 36.8392 160.17 36.9676 160V158.288ZM37.5906 155.835V160.99H37.2196C37.1309 160.99 37.0749 160.947 37.0516 160.861L36.9956 160.43C36.8439 160.612 36.6712 160.759 36.4776 160.871C36.2839 160.983 36.0599 161.039 35.8056 161.039C35.6026 161.039 35.4182 161.001 35.2526 160.924C35.0869 160.844 34.9457 160.729 34.8291 160.577C34.7124 160.425 34.6226 160.236 34.5596 160.01C34.4966 159.784 34.4651 159.524 34.4651 159.23C34.4651 158.968 34.5001 158.726 34.5701 158.502C34.6401 158.275 34.7404 158.079 34.8711 157.914C35.0017 157.748 35.1616 157.618 35.3506 157.525C35.5419 157.429 35.7566 157.382 35.9946 157.382C36.2116 157.382 36.3971 157.419 36.5511 157.494C36.7074 157.566 36.8462 157.667 36.9676 157.798V155.835H37.5906ZM41.4541 161.046C41.1741 161.046 40.9582 160.968 40.8066 160.812C40.6572 160.655 40.5826 160.43 40.5826 160.136V157.966H40.1556C40.1182 157.966 40.0867 157.956 40.0611 157.935C40.0354 157.911 40.0226 157.876 40.0226 157.83V157.581L40.6036 157.508L40.7471 156.412C40.7541 156.377 40.7692 156.349 40.7926 156.328C40.8182 156.305 40.8509 156.293 40.8906 156.293H41.2056V157.515H42.2311V157.966H41.2056V160.094C41.2056 160.243 41.2417 160.354 41.3141 160.427C41.3864 160.499 41.4797 160.535 41.5941 160.535C41.6594 160.535 41.7154 160.527 41.7621 160.511C41.8111 160.492 41.8531 160.472 41.8881 160.451C41.9231 160.43 41.9522 160.411 41.9756 160.395C42.0012 160.376 42.0234 160.367 42.0421 160.367C42.0747 160.367 42.1039 160.387 42.1296 160.427L42.3116 160.724C42.2042 160.824 42.0747 160.904 41.9231 160.962C41.7714 161.018 41.6151 161.046 41.4541 161.046ZM43.5009 157.917C43.6525 157.756 43.8205 157.628 44.0049 157.532C44.1892 157.436 44.4015 157.389 44.6419 157.389C44.8355 157.389 45.0059 157.421 45.1529 157.487C45.3022 157.55 45.4259 157.641 45.5239 157.76C45.6242 157.876 45.7 158.017 45.7514 158.183C45.8027 158.349 45.8284 158.532 45.8284 158.733V160.99H45.2019V158.733C45.2019 158.464 45.14 158.257 45.0164 158.11C44.895 157.96 44.7095 157.886 44.4599 157.886C44.2755 157.886 44.1029 157.93 43.9419 158.019C43.7832 158.107 43.6362 158.227 43.5009 158.379V160.99H42.8744V155.835H43.5009V157.917ZM49.1507 158.831C49.1507 158.686 49.1297 158.554 49.0877 158.435C49.048 158.314 48.9885 158.21 48.9092 158.124C48.8322 158.035 48.7377 157.967 48.6257 157.921C48.5137 157.872 48.3865 157.847 48.2442 157.847C47.9455 157.847 47.7087 157.935 47.5337 158.11C47.361 158.282 47.2537 158.523 47.2117 158.831H49.1507ZM49.6547 160.493C49.5777 160.586 49.4855 160.668 49.3782 160.738C49.2708 160.806 49.1553 160.862 49.0317 160.906C48.9103 160.95 48.7843 160.983 48.6537 161.004C48.523 161.027 48.3935 161.039 48.2652 161.039C48.0202 161.039 47.7938 160.998 47.5862 160.917C47.3808 160.833 47.2023 160.711 47.0507 160.553C46.9013 160.392 46.7847 160.193 46.7007 159.958C46.6167 159.722 46.5747 159.451 46.5747 159.146C46.5747 158.898 46.612 158.667 46.6867 158.453C46.7637 158.238 46.8733 158.052 47.0157 157.896C47.158 157.737 47.3318 157.614 47.5372 157.525C47.7425 157.434 47.9735 157.389 48.2302 157.389C48.4425 157.389 48.6385 157.425 48.8182 157.497C49.0002 157.567 49.1565 157.67 49.2872 157.805C49.4202 157.938 49.524 158.104 49.5987 158.302C49.6733 158.498 49.7107 158.722 49.7107 158.974C49.7107 159.072 49.7002 159.137 49.6792 159.17C49.6582 159.203 49.6185 159.219 49.5602 159.219H47.1907C47.1977 159.443 47.228 159.638 47.2817 159.804C47.3377 159.969 47.4147 160.108 47.5127 160.22C47.6107 160.33 47.7273 160.413 47.8627 160.469C47.998 160.522 48.1497 160.549 48.3177 160.549C48.474 160.549 48.6082 160.532 48.7202 160.497C48.8345 160.459 48.9325 160.42 49.0142 160.378C49.0958 160.336 49.1635 160.297 49.2172 160.262C49.2732 160.225 49.321 160.206 49.3607 160.206C49.412 160.206 49.4517 160.226 49.4797 160.266L49.6547 160.493ZM52.8934 160.136C53.0078 160.29 53.1326 160.399 53.2679 160.462C53.4033 160.525 53.5549 160.556 53.7229 160.556C54.0543 160.556 54.3086 160.438 54.4859 160.203C54.6633 159.967 54.7519 159.631 54.7519 159.195C54.7519 158.964 54.7309 158.765 54.6889 158.6C54.6493 158.434 54.5909 158.299 54.5139 158.194C54.4369 158.086 54.3424 158.008 54.2304 157.959C54.1184 157.91 53.9913 157.886 53.8489 157.886C53.6459 157.886 53.4674 157.932 53.3134 158.026C53.1618 158.119 53.0218 158.251 52.8934 158.421V160.136ZM52.8619 157.994C53.0113 157.81 53.1839 157.662 53.3799 157.55C53.5759 157.438 53.7999 157.382 54.0519 157.382C54.2573 157.382 54.4428 157.421 54.6084 157.501C54.7741 157.578 54.9153 157.693 55.0319 157.847C55.1486 157.999 55.2384 158.188 55.3014 158.414C55.3644 158.64 55.3959 158.901 55.3959 159.195C55.3959 159.456 55.3609 159.7 55.2909 159.926C55.2209 160.15 55.1194 160.345 54.9864 160.511C54.8558 160.674 54.6948 160.803 54.5034 160.899C54.3144 160.992 54.1009 161.039 53.8629 161.039C53.6459 161.039 53.4593 161.003 53.3029 160.931C53.1489 160.856 53.0124 160.753 52.8934 160.623V162.191H52.2669V157.445H52.6414C52.7301 157.445 52.7849 157.488 52.8059 157.574L52.8619 157.994ZM56.7823 158.155C56.8943 157.912 57.0319 157.723 57.1953 157.588C57.3586 157.45 57.5581 157.382 57.7938 157.382C57.8684 157.382 57.9396 157.39 58.0073 157.406C58.0773 157.422 58.1391 157.448 58.1928 157.483L58.1473 157.949C58.1333 158.007 58.0983 158.036 58.0423 158.036C58.0096 158.036 57.9618 158.029 57.8988 158.015C57.8358 158.001 57.7646 157.994 57.6853 157.994C57.5733 157.994 57.4729 158.01 57.3843 158.043C57.2979 158.076 57.2198 158.125 57.1498 158.19C57.0821 158.253 57.0203 158.332 56.9643 158.428C56.9106 158.521 56.8616 158.629 56.8173 158.75V160.99H56.1908V157.445H56.5478C56.6154 157.445 56.6621 157.457 56.6878 157.483C56.7134 157.509 56.7309 157.553 56.7403 157.616L56.7823 158.155ZM60.0915 157.389C60.3505 157.389 60.5838 157.432 60.7915 157.518C60.9992 157.604 61.1765 157.727 61.3235 157.886C61.4705 158.044 61.5825 158.237 61.6595 158.463C61.7388 158.687 61.7785 158.938 61.7785 159.216C61.7785 159.496 61.7388 159.748 61.6595 159.972C61.5825 160.196 61.4705 160.387 61.3235 160.546C61.1765 160.704 60.9992 160.827 60.7915 160.913C60.5838 160.997 60.3505 161.039 60.0915 161.039C59.8302 161.039 59.5945 160.997 59.3845 160.913C59.1768 160.827 58.9995 160.704 58.8525 160.546C58.7055 160.387 58.5923 160.196 58.513 159.972C58.436 159.748 58.3975 159.496 58.3975 159.216C58.3975 158.938 58.436 158.687 58.513 158.463C58.5923 158.237 58.7055 158.044 58.8525 157.886C58.9995 157.727 59.1768 157.604 59.3845 157.518C59.5945 157.432 59.8302 157.389 60.0915 157.389ZM60.0915 160.553C60.4415 160.553 60.7028 160.436 60.8755 160.203C61.0482 159.967 61.1345 159.639 61.1345 159.219C61.1345 158.797 61.0482 158.468 60.8755 158.232C60.7028 157.996 60.4415 157.879 60.0915 157.879C59.9142 157.879 59.759 157.909 59.626 157.97C59.4953 158.03 59.3857 158.118 59.297 158.232C59.2107 158.346 59.1453 158.488 59.101 158.656C59.059 158.821 59.038 159.009 59.038 159.219C59.038 159.639 59.1243 159.967 59.297 160.203C59.472 160.436 59.7368 160.553 60.0915 160.553ZM64.8787 158.288C64.762 158.132 64.636 158.023 64.5007 157.963C64.3654 157.9 64.2137 157.868 64.0457 157.868C63.7167 157.868 63.4635 157.986 63.2862 158.222C63.1089 158.457 63.0202 158.793 63.0202 159.23C63.0202 159.461 63.04 159.659 63.0797 159.825C63.1194 159.988 63.1777 160.123 63.2547 160.231C63.3317 160.336 63.4262 160.413 63.5382 160.462C63.6502 160.511 63.7774 160.535 63.9197 160.535C64.125 160.535 64.3035 160.488 64.4552 160.395C64.6092 160.302 64.7504 160.17 64.8787 160V158.288ZM65.5017 155.835V160.99H65.1307C65.042 160.99 64.986 160.947 64.9627 160.861L64.9067 160.43C64.755 160.612 64.5824 160.759 64.3887 160.871C64.195 160.983 63.971 161.039 63.7167 161.039C63.5137 161.039 63.3294 161.001 63.1637 160.924C62.998 160.844 62.8569 160.729 62.7402 160.577C62.6235 160.425 62.5337 160.236 62.4707 160.01C62.4077 159.784 62.3762 159.524 62.3762 159.23C62.3762 158.968 62.4112 158.726 62.4812 158.502C62.5512 158.275 62.6515 158.079 62.7822 157.914C62.9129 157.748 63.0727 157.618 63.2617 157.525C63.453 157.429 63.6677 157.382 63.9057 157.382C64.1227 157.382 64.3082 157.419 64.4622 157.494C64.6185 157.566 64.7574 157.667 64.8787 157.798V155.835H65.5017ZM69.4012 157.445V160.99H69.0302C68.9415 160.99 68.8855 160.947 68.8622 160.861L68.8132 160.479C68.6592 160.649 68.4865 160.787 68.2952 160.892C68.1039 160.995 67.8845 161.046 67.6372 161.046C67.4435 161.046 67.272 161.015 67.1227 160.952C66.9757 160.886 66.852 160.795 66.7517 160.679C66.6514 160.562 66.5755 160.421 66.5242 160.255C66.4752 160.089 66.4507 159.906 66.4507 159.706V157.445H67.0737V159.706C67.0737 159.974 67.1344 160.182 67.2557 160.329C67.3794 160.476 67.5672 160.549 67.8192 160.549C68.0035 160.549 68.175 160.506 68.3337 160.42C68.4947 160.331 68.6429 160.21 68.7782 160.056V157.445H69.4012ZM72.8565 158.075C72.8378 158.1 72.8192 158.12 72.8005 158.134C72.7818 158.148 72.7562 158.155 72.7235 158.155C72.6885 158.155 72.65 158.141 72.608 158.113C72.566 158.083 72.5135 158.05 72.4505 158.015C72.3898 157.98 72.314 157.949 72.223 157.921C72.1343 157.89 72.0247 157.875 71.894 157.875C71.719 157.875 71.565 157.907 71.432 157.97C71.299 158.03 71.187 158.119 71.096 158.236C71.0073 158.352 70.9397 158.493 70.893 158.659C70.8487 158.825 70.8265 159.01 70.8265 159.216C70.8265 159.43 70.851 159.622 70.9 159.79C70.949 159.955 71.0178 160.095 71.1065 160.21C71.1975 160.322 71.306 160.408 71.432 160.469C71.5603 160.527 71.7038 160.556 71.8625 160.556C72.0142 160.556 72.139 160.539 72.237 160.504C72.335 160.466 72.4155 160.425 72.4785 160.381C72.5438 160.337 72.5975 160.297 72.6395 160.262C72.6838 160.225 72.727 160.206 72.769 160.206C72.8203 160.206 72.86 160.226 72.888 160.266L73.063 160.493C72.986 160.589 72.8985 160.67 72.8005 160.738C72.7025 160.806 72.5963 160.863 72.482 160.91C72.37 160.954 72.2522 160.987 72.1285 161.008C72.0048 161.029 71.8788 161.039 71.7505 161.039C71.5288 161.039 71.3223 160.998 71.131 160.917C70.942 160.835 70.7775 160.717 70.6375 160.563C70.4975 160.407 70.3878 160.215 70.3085 159.989C70.2292 159.763 70.1895 159.505 70.1895 159.216C70.1895 158.952 70.2257 158.708 70.298 158.484C70.3727 158.26 70.48 158.068 70.62 157.907C70.7623 157.743 70.9362 157.616 71.1415 157.525C71.3492 157.434 71.5872 157.389 71.8555 157.389C72.1052 157.389 72.3245 157.429 72.5135 157.511C72.7048 157.59 72.874 157.704 73.021 157.851L72.8565 158.075ZM74.8203 161.046C74.5403 161.046 74.3244 160.968 74.1728 160.812C74.0234 160.655 73.9488 160.43 73.9488 160.136V157.966H73.5218C73.4844 157.966 73.4529 157.956 73.4273 157.935C73.4016 157.911 73.3888 157.876 73.3888 157.83V157.581L73.9698 157.508L74.1133 156.412C74.1203 156.377 74.1354 156.349 74.1588 156.328C74.1844 156.305 74.2171 156.293 74.2568 156.293H74.5718V157.515H75.5973V157.966H74.5718V160.094C74.5718 160.243 74.6079 160.354 74.6803 160.427C74.7526 160.499 74.8459 160.535 74.9603 160.535C75.0256 160.535 75.0816 160.527 75.1283 160.511C75.1773 160.492 75.2193 160.472 75.2543 160.451C75.2893 160.43 75.3184 160.411 75.3418 160.395C75.3674 160.376 75.3896 160.367 75.4083 160.367C75.4409 160.367 75.4701 160.387 75.4958 160.427L75.6778 160.724C75.5704 160.824 75.4409 160.904 75.2893 160.962C75.1376 161.018 74.9813 161.046 74.8203 161.046ZM78.3056 158.029C78.2776 158.08 78.2344 158.106 78.1761 158.106C78.1411 158.106 78.1014 158.093 78.0571 158.068C78.0127 158.042 77.9579 158.014 77.8926 157.984C77.8296 157.951 77.7537 157.922 77.6651 157.896C77.5764 157.868 77.4714 157.854 77.3501 157.854C77.2451 157.854 77.1506 157.868 77.0666 157.896C76.9826 157.922 76.9102 157.958 76.8496 158.005C76.7912 158.051 76.7457 158.106 76.7131 158.169C76.6827 158.23 76.6676 158.296 76.6676 158.369C76.6676 158.46 76.6932 158.535 76.7446 158.596C76.7982 158.657 76.8682 158.709 76.9546 158.754C77.0409 158.798 77.1389 158.838 77.2486 158.873C77.3582 158.905 77.4702 158.941 77.5846 158.981C77.7012 159.018 77.8144 159.06 77.9241 159.107C78.0337 159.154 78.1317 159.212 78.2181 159.282C78.3044 159.352 78.3732 159.438 78.4246 159.541C78.4782 159.641 78.5051 159.763 78.5051 159.905C78.5051 160.068 78.4759 160.22 78.4176 160.36C78.3592 160.498 78.2729 160.618 78.1586 160.721C78.0442 160.821 77.9042 160.9 77.7386 160.959C77.5729 161.017 77.3816 161.046 77.1646 161.046C76.9172 161.046 76.6932 161.006 76.4926 160.927C76.2919 160.845 76.1216 160.742 75.9816 160.616L76.1286 160.378C76.1472 160.347 76.1694 160.324 76.1951 160.308C76.2207 160.291 76.2534 160.283 76.2931 160.283C76.3351 160.283 76.3794 160.299 76.4261 160.332C76.4727 160.365 76.5287 160.401 76.5941 160.441C76.6617 160.48 76.7434 160.516 76.8391 160.549C76.9347 160.582 77.0537 160.598 77.1961 160.598C77.3174 160.598 77.4236 160.583 77.5146 160.553C77.6056 160.52 77.6814 160.477 77.7421 160.423C77.8027 160.369 77.8471 160.308 77.8751 160.238C77.9054 160.168 77.9206 160.093 77.9206 160.014C77.9206 159.916 77.8937 159.835 77.8401 159.772C77.7887 159.707 77.7199 159.652 77.6336 159.608C77.5472 159.561 77.4481 159.521 77.3361 159.489C77.2264 159.454 77.1132 159.417 76.9966 159.38C76.8822 159.343 76.7691 159.301 76.6571 159.254C76.5474 159.205 76.4494 159.144 76.3631 159.072C76.2767 159 76.2067 158.911 76.1531 158.806C76.1017 158.699 76.0761 158.569 76.0761 158.418C76.0761 158.282 76.1041 158.153 76.1601 158.029C76.2161 157.903 76.2977 157.793 76.4051 157.7C76.5124 157.604 76.6442 157.529 76.8006 157.473C76.9569 157.417 77.1354 157.389 77.3361 157.389C77.5694 157.389 77.7782 157.426 77.9626 157.501C78.1492 157.573 78.3102 157.673 78.4456 157.802L78.3056 158.029ZM83.9412 157.445L81.9637 162.037C81.9427 162.083 81.9158 162.121 81.8832 162.149C81.8528 162.177 81.805 162.191 81.7397 162.191H81.2777L81.9252 160.784L80.4622 157.445H81.0012C81.0548 157.445 81.0968 157.459 81.1272 157.487C81.1598 157.512 81.182 157.541 81.1937 157.574L82.1422 159.807C82.1795 159.905 82.211 160.008 82.2367 160.115C82.2693 160.005 82.3043 159.902 82.3417 159.804L83.2622 157.574C83.2762 157.537 83.2995 157.506 83.3322 157.483C83.3672 157.457 83.4057 157.445 83.4477 157.445H83.9412ZM85.8903 157.389C86.1493 157.389 86.3827 157.432 86.5903 157.518C86.798 157.604 86.9753 157.727 87.1223 157.886C87.2693 158.044 87.3813 158.237 87.4583 158.463C87.5377 158.687 87.5773 158.938 87.5773 159.216C87.5773 159.496 87.5377 159.748 87.4583 159.972C87.3813 160.196 87.2693 160.387 87.1223 160.546C86.9753 160.704 86.798 160.827 86.5903 160.913C86.3827 160.997 86.1493 161.039 85.8903 161.039C85.629 161.039 85.3933 160.997 85.1833 160.913C84.9757 160.827 84.7983 160.704 84.6513 160.546C84.5043 160.387 84.3912 160.196 84.3118 159.972C84.2348 159.748 84.1963 159.496 84.1963 159.216C84.1963 158.938 84.2348 158.687 84.3118 158.463C84.3912 158.237 84.5043 158.044 84.6513 157.886C84.7983 157.727 84.9757 157.604 85.1833 157.518C85.3933 157.432 85.629 157.389 85.8903 157.389ZM85.8903 160.553C86.2403 160.553 86.5017 160.436 86.6743 160.203C86.847 159.967 86.9333 159.639 86.9333 159.219C86.9333 158.797 86.847 158.468 86.6743 158.232C86.5017 157.996 86.2403 157.879 85.8903 157.879C85.713 157.879 85.5578 157.909 85.4248 157.97C85.2942 158.03 85.1845 158.118 85.0958 158.232C85.0095 158.346 84.9442 158.488 84.8998 158.656C84.8578 158.821 84.8368 159.009 84.8368 159.219C84.8368 159.639 84.9232 159.967 85.0958 160.203C85.2708 160.436 85.5357 160.553 85.8903 160.553ZM91.283 157.445V160.99H90.912C90.8234 160.99 90.7674 160.947 90.744 160.861L90.695 160.479C90.541 160.649 90.3684 160.787 90.177 160.892C89.9857 160.995 89.7664 161.046 89.519 161.046C89.3254 161.046 89.1539 161.015 89.0045 160.952C88.8575 160.886 88.7339 160.795 88.6335 160.679C88.5332 160.562 88.4574 160.421 88.406 160.255C88.357 160.089 88.3325 159.906 88.3325 159.706V157.445H88.9555V159.706C88.9555 159.974 89.0162 160.182 89.1375 160.329C89.2612 160.476 89.449 160.549 89.701 160.549C89.8854 160.549 90.0569 160.506 90.2155 160.42C90.3765 160.331 90.5247 160.21 90.66 160.056V157.445H91.283ZM94.7059 155.835V160.99H94.0829V155.835H94.7059ZM96.3742 157.445V160.99H95.7512V157.445H96.3742ZM96.5072 156.332C96.5072 156.392 96.4943 156.449 96.4687 156.503C96.4453 156.554 96.4127 156.601 96.3707 156.643C96.331 156.683 96.2832 156.714 96.2272 156.738C96.1735 156.761 96.1163 156.773 96.0557 156.773C95.995 156.773 95.9378 156.761 95.8842 156.738C95.8328 156.714 95.7873 156.683 95.7477 156.643C95.708 156.601 95.6765 156.554 95.6532 156.503C95.6298 156.449 95.6182 156.392 95.6182 156.332C95.6182 156.271 95.6298 156.214 95.6532 156.16C95.6765 156.104 95.708 156.056 95.7477 156.017C95.7873 155.975 95.8328 155.942 95.8842 155.919C95.9378 155.895 95.995 155.884 96.0557 155.884C96.1163 155.884 96.1735 155.895 96.2272 155.919C96.2832 155.942 96.331 155.975 96.3707 156.017C96.4127 156.056 96.4453 156.104 96.4687 156.16C96.4943 156.214 96.5072 156.271 96.5072 156.332ZM98.0243 155.835V158.869H98.1853C98.232 158.869 98.2705 158.863 98.3008 158.852C98.3335 158.838 98.3673 158.811 98.4023 158.771L99.5223 157.571C99.555 157.531 99.5888 157.501 99.6238 157.48C99.6611 157.456 99.7101 157.445 99.7708 157.445H100.334L99.0288 158.834C98.9658 158.913 98.8981 158.975 98.8258 159.02C98.8678 159.048 98.9051 159.08 98.9378 159.118C98.9728 159.153 99.0055 159.193 99.0358 159.24L100.422 160.99H99.8653C99.8116 160.99 99.765 160.982 99.7253 160.966C99.688 160.947 99.6553 160.914 99.6273 160.868L98.4618 159.415C98.4268 159.366 98.3918 159.335 98.3568 159.321C98.3241 159.304 98.2728 159.296 98.2028 159.296H98.0243V160.99H97.3978V155.835H98.0243ZM103.127 158.831C103.127 158.686 103.106 158.554 103.064 158.435C103.025 158.314 102.965 158.21 102.886 158.124C102.809 158.035 102.714 157.967 102.602 157.921C102.49 157.872 102.363 157.847 102.221 157.847C101.922 157.847 101.685 157.935 101.51 158.11C101.338 158.282 101.23 158.523 101.188 158.831H103.127ZM103.631 160.493C103.554 160.586 103.462 160.668 103.355 160.738C103.247 160.806 103.132 160.862 103.008 160.906C102.887 160.95 102.761 160.983 102.63 161.004C102.5 161.027 102.37 161.039 102.242 161.039C101.997 161.039 101.77 160.998 101.563 160.917C101.357 160.833 101.179 160.711 101.027 160.553C100.878 160.392 100.761 160.193 100.677 159.958C100.593 159.722 100.551 159.451 100.551 159.146C100.551 158.898 100.589 158.667 100.663 158.453C100.74 158.238 100.85 158.052 100.992 157.896C101.135 157.737 101.308 157.614 101.514 157.525C101.719 157.434 101.95 157.389 102.207 157.389C102.419 157.389 102.615 157.425 102.795 157.497C102.977 157.567 103.133 157.67 103.264 157.805C103.397 157.938 103.501 158.104 103.575 158.302C103.65 158.498 103.687 158.722 103.687 158.974C103.687 159.072 103.677 159.137 103.656 159.17C103.635 159.203 103.595 159.219 103.537 159.219H101.167C101.174 159.443 101.205 159.638 101.258 159.804C101.314 159.969 101.391 160.108 101.489 160.22C101.587 160.33 101.704 160.413 101.839 160.469C101.975 160.522 102.126 160.549 102.294 160.549C102.451 160.549 102.585 160.532 102.697 160.497C102.811 160.459 102.909 160.42 102.991 160.378C103.072 160.336 103.14 160.297 103.194 160.262C103.25 160.225 103.298 160.206 103.337 160.206C103.389 160.206 103.428 160.226 103.456 160.266L103.631 160.493ZM104.347 160.605C104.347 160.544 104.358 160.487 104.379 160.434C104.402 160.38 104.433 160.333 104.47 160.294C104.51 160.254 104.556 160.222 104.61 160.199C104.664 160.176 104.721 160.164 104.781 160.164C104.842 160.164 104.899 160.176 104.953 160.199C105.007 160.222 105.053 160.254 105.093 160.294C105.133 160.333 105.164 160.38 105.187 160.434C105.211 160.487 105.222 160.544 105.222 160.605C105.222 160.668 105.211 160.726 105.187 160.78C105.164 160.831 105.133 160.877 105.093 160.917C105.053 160.956 105.007 160.987 104.953 161.008C104.899 161.031 104.842 161.043 104.781 161.043C104.721 161.043 104.664 161.031 104.61 161.008C104.556 160.987 104.51 160.956 104.47 160.917C104.433 160.877 104.402 160.831 104.379 160.78C104.358 160.726 104.347 160.668 104.347 160.605Z" fill="#A0A0A0"/>
</svg>
