<svg width="119" height="145" viewBox="0 0 119 145" fill="none" xmlns="http://www.w3.org/2000/svg">
<path d="M59.18 81.83C59.7212 81.83 60.16 81.3912 60.16 80.85C60.16 80.3088 59.7212 79.87 59.18 79.87C58.6387 79.87 58.2 80.3088 58.2 80.85C58.2 81.3912 58.6387 81.83 59.18 81.83Z" fill="#CFCFCF"/>
<path d="M30.71 8.04999V12.35" stroke="#BABABA" stroke-linecap="round" stroke-linejoin="round"/>
<path d="M28.55 10.2H32.8601" stroke="#BABABA" stroke-linecap="round" stroke-linejoin="round"/>
<path d="M79.66 35.17C71.2899 35.17 62.77 34.83 54.7999 32.61C46.9799 30.44 39.7999 26.23 33.3999 21.36C29.2099 18.19 25.3999 15.66 19.9599 16.04C14.638 16.328 9.54874 18.3153 5.43995 21.71C-1.48005 27.77 -0.440053 39 2.32995 46.86C6.48995 58.73 19.1499 67 29.9099 72.35C42.34 78.56 56 82.17 69.6899 84.24C81.6899 86.07 97.1099 87.39 107.51 79.56C117.06 72.35 119.68 55.91 117.34 44.81C116.772 41.5309 115.026 38.5721 112.43 36.49C105.72 31.58 95.7099 34.86 88.1699 35.02C85.3699 35.08 82.52 35.15 79.66 35.17Z" fill="#F2F2F2"/>
<path d="M66.1199 2.18998C66.6611 2.18998 67.0999 1.75122 67.0999 1.20998C67.0999 0.668741 66.6611 0.22998 66.1199 0.22998C65.5787 0.22998 65.1399 0.668741 65.1399 1.20998C65.1399 1.75122 65.5787 2.18998 66.1199 2.18998Z" fill="#CFCFCF"/>
<path d="M15.2 78.5V82.8" stroke="#BABABA" stroke-linecap="round" stroke-linejoin="round"/>
<path d="M13.05 80.65H17.35" stroke="#BABABA" stroke-linecap="round" stroke-linejoin="round"/>
<path d="M59.5801 103.7C79.8545 103.7 96.2901 102.675 96.2901 101.41C96.2901 100.145 79.8545 99.12 59.5801 99.12C39.3057 99.12 22.8701 100.145 22.8701 101.41C22.8701 102.675 39.3057 103.7 59.5801 103.7Z" fill="#F2F2F2"/>
<path d="M89.0899 76.88H25.6799C25.2555 76.8797 24.8363 76.7872 24.4512 76.609C24.0661 76.4307 23.7243 76.1709 23.4495 75.8476C23.1746 75.5243 22.9733 75.1451 22.8594 74.7363C22.7456 74.3275 22.7218 73.8989 22.7899 73.48L30.8999 24.3C31.0095 23.6155 31.3598 22.9926 31.8878 22.5435C32.4157 22.0943 33.0867 21.8484 33.7799 21.85H97.1899C97.6139 21.85 98.0329 21.9424 98.4176 22.1208C98.8024 22.2991 99.1436 22.5591 99.4177 22.8827C99.6918 23.2062 99.8921 23.5856 100.005 23.9944C100.117 24.4033 100.14 24.8317 100.07 25.25L91.9999 74.43C91.8876 75.1187 91.5324 75.7444 90.9986 76.1939C90.4648 76.6433 89.7877 76.8867 89.0899 76.88Z" fill="#D2D2D2"/>
<path d="M89.8713 20.5639L52.2325 3.75874C51.123 3.26339 49.8221 3.76122 49.3267 4.87068L37.3976 31.5885C36.9022 32.698 37.4001 33.999 38.5095 34.4943L76.1483 51.2994C77.2578 51.7948 78.5587 51.297 79.0541 50.1875L90.9832 23.4696C91.4786 22.3602 90.9807 21.0592 89.8713 20.5639Z" fill="white" stroke="#BABABA" stroke-linecap="round" stroke-linejoin="round"/>
<path d="M57.75 25.74C58.7407 24.3499 60.1816 23.345 61.8285 22.8957C63.4754 22.4464 65.2269 22.5803 66.7864 23.2747C68.3458 23.9691 69.6172 25.1813 70.3852 26.7058C71.1531 28.2304 71.3703 29.9736 71 31.64" stroke="#BABABA" stroke-width="0.68" stroke-linecap="round" stroke-linejoin="round"/>
<path d="M75.75 24.23C76.3188 24.23 76.78 23.7688 76.78 23.2C76.78 22.6311 76.3188 22.17 75.75 22.17C75.1811 22.17 74.72 22.6311 74.72 23.2C74.72 23.7688 75.1811 24.23 75.75 24.23Z" fill="#BABABA"/>
<path d="M60.83 17.57C61.3989 17.57 61.86 17.1089 61.86 16.54C61.86 15.9712 61.3989 15.51 60.83 15.51C60.2612 15.51 59.8 15.9712 59.8 16.54C59.8 17.1089 60.2612 17.57 60.83 17.57Z" fill="#BABABA"/>
<path d="M88.81 76.86H25.09C24.3147 76.8574 23.572 76.5475 23.0247 75.9983C22.4773 75.4491 22.17 74.7054 22.17 73.93V29C22.1607 28.6102 22.2293 28.2225 22.3717 27.8596C22.5142 27.4966 22.7276 27.1657 22.9996 26.8863C23.2715 26.607 23.5965 26.3846 23.9554 26.2324C24.3144 26.0802 24.7001 26.0012 25.09 26H48.3C48.8386 26.002 49.3662 26.1524 49.8249 26.4346C50.2836 26.7169 50.6556 27.1201 50.9 27.6L54.21 34.08C54.4536 34.5606 54.8254 34.9645 55.2843 35.2468C55.7432 35.5292 56.2712 35.6791 56.81 35.68H88.81C89.5845 35.68 90.3272 35.9876 90.8748 36.5352C91.4224 37.0829 91.73 37.8256 91.73 38.6V73.93C91.73 74.7054 91.4227 75.4491 90.8754 75.9983C90.3281 76.5475 89.5854 76.8574 88.81 76.86Z" fill="white" stroke="#BABABA" stroke-linecap="round" stroke-linejoin="round"/>
<path d="M78.9999 37.21C75.3188 37.208 71.7197 38.2978 68.658 40.3415C65.5963 42.3852 63.2094 45.291 61.7994 48.6914C60.3893 52.0917 60.0193 55.8339 60.7363 59.4445C61.4532 63.0552 63.2248 66.3721 65.8271 68.9757C68.4294 71.5794 71.7453 73.3528 75.3556 74.0717C78.9658 74.7906 82.7082 74.4226 86.1093 73.0144C89.5104 71.6061 92.4175 69.2208 94.4628 66.1602C96.5082 63.0996 97.5999 59.5012 97.5999 55.82C97.5999 50.8861 95.6406 46.1541 92.1527 42.6643C88.6648 39.1745 83.9338 37.2127 78.9999 37.21Z" fill="white" stroke="#BABABA" stroke-linecap="round" stroke-linejoin="round"/>
<path d="M92.24 69.32L97.2 74.28" stroke="#BABABA" stroke-linecap="round" stroke-linejoin="round"/>
<path d="M96.6393 71.8701L95.0984 73.4821C94.4076 74.2046 94.4334 75.3504 95.156 76.0411L108.529 88.8248C109.251 89.5155 110.397 89.4897 111.088 88.7672L112.629 87.1552C113.319 86.4326 113.294 85.2869 112.571 84.5961L99.1984 71.8125C98.4758 71.1217 97.3301 71.1475 96.6393 71.8701Z" fill="#D2D2D2"/>
<path d="M106.54 1.21002V5.52002" stroke="#BABABA" stroke-linecap="round" stroke-linejoin="round"/>
<path d="M104.38 3.37H108.69" stroke="#BABABA" stroke-linecap="round" stroke-linejoin="round"/>
<path d="M44.2201 135.6V142.83H43.5301C43.4234 142.83 43.3334 142.813 43.2601 142.78C43.1901 142.743 43.1217 142.683 43.0551 142.6L39.2801 137.78C39.3001 138 39.3101 138.203 39.3101 138.39V142.83H38.1251V135.6H38.8301C38.8867 135.6 38.9351 135.603 38.9751 135.61C39.0184 135.613 39.0551 135.623 39.0851 135.64C39.1184 135.653 39.1501 135.675 39.1801 135.705C39.2101 135.732 39.2434 135.768 39.2801 135.815L43.0701 140.655C43.0601 140.538 43.0517 140.423 43.0451 140.31C43.0384 140.197 43.0351 140.092 43.0351 139.995V135.6H44.2201ZM47.7489 137.62C48.1289 137.62 48.4739 137.682 48.7839 137.805C49.0972 137.928 49.3639 138.103 49.5839 138.33C49.8072 138.557 49.9789 138.833 50.0989 139.16C50.2189 139.487 50.2789 139.852 50.2789 140.255C50.2789 140.662 50.2189 141.028 50.0989 141.355C49.9789 141.682 49.8072 141.96 49.5839 142.19C49.3639 142.42 49.0972 142.597 48.7839 142.72C48.4739 142.843 48.1289 142.905 47.7489 142.905C47.3656 142.905 47.0172 142.843 46.7039 142.72C46.3906 142.597 46.1222 142.42 45.8989 142.19C45.6789 141.96 45.5072 141.682 45.3839 141.355C45.2639 141.028 45.2039 140.662 45.2039 140.255C45.2039 139.852 45.2639 139.487 45.3839 139.16C45.5072 138.833 45.6789 138.557 45.8989 138.33C46.1222 138.103 46.3906 137.928 46.7039 137.805C47.0172 137.682 47.3656 137.62 47.7489 137.62ZM47.7489 141.955C48.1756 141.955 48.4906 141.812 48.6939 141.525C48.9006 141.238 49.0039 140.818 49.0039 140.265C49.0039 139.712 48.9006 139.29 48.6939 139C48.4906 138.71 48.1756 138.565 47.7489 138.565C47.3156 138.565 46.9939 138.712 46.7839 139.005C46.5772 139.295 46.4739 139.715 46.4739 140.265C46.4739 140.815 46.5772 141.235 46.7839 141.525C46.9939 141.812 47.3156 141.955 47.7489 141.955ZM56.0327 139.04C56.2861 139.04 56.5061 139.008 56.6927 138.945C56.8827 138.882 57.0377 138.795 57.1577 138.685C57.2811 138.572 57.3727 138.438 57.4327 138.285C57.4927 138.132 57.5227 137.963 57.5227 137.78C57.5227 137.413 57.4011 137.132 57.1577 136.935C56.9177 136.738 56.5494 136.64 56.0527 136.64H55.1927V139.04H56.0327ZM59.4927 142.83H58.2777C58.0477 142.83 57.8811 142.74 57.7777 142.56L56.2577 140.245C56.2011 140.158 56.1377 140.097 56.0677 140.06C56.0011 140.023 55.9011 140.005 55.7677 140.005H55.1927V142.83H53.8477V135.6H56.0527C56.5427 135.6 56.9627 135.652 57.3127 135.755C57.6661 135.855 57.9544 135.997 58.1777 136.18C58.4044 136.363 58.5711 136.583 58.6777 136.84C58.7844 137.093 58.8377 137.373 58.8377 137.68C58.8377 137.923 58.8011 138.153 58.7277 138.37C58.6577 138.587 58.5544 138.783 58.4177 138.96C58.2844 139.137 58.1177 139.292 57.9177 139.425C57.7211 139.558 57.4961 139.663 57.2427 139.74C57.3294 139.79 57.4094 139.85 57.4827 139.92C57.5561 139.987 57.6227 140.067 57.6827 140.16L59.4927 142.83ZM63.0515 139.675C63.0515 139.515 63.0281 139.365 62.9815 139.225C62.9381 139.082 62.8715 138.957 62.7815 138.85C62.6915 138.743 62.5765 138.66 62.4365 138.6C62.2998 138.537 62.1398 138.505 61.9565 138.505C61.5998 138.505 61.3181 138.607 61.1115 138.81C60.9081 139.013 60.7781 139.302 60.7215 139.675H63.0515ZM60.6965 140.42C60.7165 140.683 60.7631 140.912 60.8365 141.105C60.9098 141.295 61.0065 141.453 61.1265 141.58C61.2465 141.703 61.3881 141.797 61.5515 141.86C61.7181 141.92 61.9015 141.95 62.1015 141.95C62.3015 141.95 62.4731 141.927 62.6165 141.88C62.7631 141.833 62.8898 141.782 62.9965 141.725C63.1065 141.668 63.2015 141.617 63.2815 141.57C63.3648 141.523 63.4448 141.5 63.5215 141.5C63.6248 141.5 63.7015 141.538 63.7515 141.615L64.1065 142.065C63.9698 142.225 63.8165 142.36 63.6465 142.47C63.4765 142.577 63.2981 142.663 63.1115 142.73C62.9281 142.793 62.7398 142.838 62.5465 142.865C62.3565 142.892 62.1715 142.905 61.9915 142.905C61.6348 142.905 61.3031 142.847 60.9965 142.73C60.6898 142.61 60.4231 142.435 60.1965 142.205C59.9698 141.972 59.7915 141.685 59.6615 141.345C59.5315 141.002 59.4665 140.605 59.4665 140.155C59.4665 139.805 59.5231 139.477 59.6365 139.17C59.7498 138.86 59.9115 138.592 60.1215 138.365C60.3348 138.135 60.5931 137.953 60.8965 137.82C61.2031 137.687 61.5481 137.62 61.9315 137.62C62.2548 137.62 62.5531 137.672 62.8265 137.775C63.0998 137.878 63.3348 138.03 63.5315 138.23C63.7281 138.427 63.8815 138.67 63.9915 138.96C64.1048 139.247 64.1615 139.575 64.1615 139.945C64.1615 140.132 64.1415 140.258 64.1015 140.325C64.0615 140.388 63.9848 140.42 63.8715 140.42H60.6965ZM68.2183 138.7C68.1849 138.753 68.1499 138.792 68.1133 138.815C68.0766 138.835 68.0299 138.845 67.9733 138.845C67.9133 138.845 67.8483 138.828 67.7783 138.795C67.7116 138.762 67.6333 138.725 67.5433 138.685C67.4533 138.642 67.3499 138.603 67.2333 138.57C67.1199 138.537 66.9849 138.52 66.8283 138.52C66.5849 138.52 66.3933 138.572 66.2533 138.675C66.1166 138.778 66.0483 138.913 66.0483 139.08C66.0483 139.19 66.0833 139.283 66.1533 139.36C66.2266 139.433 66.3216 139.498 66.4383 139.555C66.5583 139.612 66.6933 139.663 66.8433 139.71C66.9933 139.753 67.1449 139.802 67.2983 139.855C67.4549 139.908 67.6083 139.97 67.7583 140.04C67.9083 140.107 68.0416 140.193 68.1583 140.3C68.2783 140.403 68.3733 140.528 68.4433 140.675C68.5166 140.822 68.5533 140.998 68.5533 141.205C68.5533 141.452 68.5083 141.68 68.4183 141.89C68.3316 142.097 68.2016 142.277 68.0283 142.43C67.8549 142.58 67.6399 142.698 67.3833 142.785C67.1299 142.868 66.8366 142.91 66.5033 142.91C66.3266 142.91 66.1533 142.893 65.9833 142.86C65.8166 142.83 65.6549 142.787 65.4983 142.73C65.3449 142.673 65.2016 142.607 65.0683 142.53C64.9383 142.453 64.8233 142.37 64.7233 142.28L65.0083 141.81C65.0449 141.753 65.0883 141.71 65.1383 141.68C65.1883 141.65 65.2516 141.635 65.3283 141.635C65.4049 141.635 65.4766 141.657 65.5433 141.7C65.6133 141.743 65.6933 141.79 65.7833 141.84C65.8733 141.89 65.9783 141.937 66.0983 141.98C66.2216 142.023 66.3766 142.045 66.5633 142.045C66.7099 142.045 66.8349 142.028 66.9383 141.995C67.0449 141.958 67.1316 141.912 67.1983 141.855C67.2683 141.798 67.3183 141.733 67.3483 141.66C67.3816 141.583 67.3983 141.505 67.3983 141.425C67.3983 141.305 67.3616 141.207 67.2883 141.13C67.2183 141.053 67.1233 140.987 67.0033 140.93C66.8866 140.873 66.7516 140.823 66.5983 140.78C66.4483 140.733 66.2933 140.683 66.1333 140.63C65.9766 140.577 65.8216 140.515 65.6683 140.445C65.5183 140.372 65.3833 140.28 65.2633 140.17C65.1466 140.06 65.0516 139.925 64.9783 139.765C64.9083 139.605 64.8733 139.412 64.8733 139.185C64.8733 138.975 64.9149 138.775 64.9983 138.585C65.0816 138.395 65.2033 138.23 65.3633 138.09C65.5266 137.947 65.7283 137.833 65.9683 137.75C66.2116 137.663 66.4916 137.62 66.8083 137.62C67.1616 137.62 67.4833 137.678 67.7733 137.795C68.0633 137.912 68.3049 138.065 68.4983 138.255L68.2183 138.7ZM73.9028 137.7V142.83H73.1478C72.9845 142.83 72.8811 142.755 72.8378 142.605L72.7528 142.195C72.5428 142.408 72.3111 142.582 72.0578 142.715C71.8045 142.845 71.5061 142.91 71.1628 142.91C70.8828 142.91 70.6345 142.863 70.4178 142.77C70.2045 142.673 70.0245 142.538 69.8778 142.365C69.7311 142.192 69.6195 141.987 69.5428 141.75C69.4695 141.51 69.4328 141.247 69.4328 140.96V137.7H70.6678V140.96C70.6678 141.273 70.7395 141.517 70.8828 141.69C71.0295 141.86 71.2478 141.945 71.5378 141.945C71.7511 141.945 71.9511 141.898 72.1378 141.805C72.3245 141.708 72.5011 141.577 72.6678 141.41V137.7H73.9028ZM76.3773 135.4V142.83H75.1423V135.4H76.3773ZM79.3178 142.91C78.8711 142.91 78.5278 142.785 78.2878 142.535C78.0511 142.282 77.9328 141.933 77.9328 141.49V138.625H77.4078C77.3411 138.625 77.2845 138.603 77.2378 138.56C77.1911 138.517 77.1678 138.452 77.1678 138.365V137.875L77.9928 137.74L78.2528 136.34C78.2695 136.273 78.3011 136.222 78.3478 136.185C78.3945 136.148 78.4545 136.13 78.5278 136.13H79.1678V137.745H80.5378V138.625H79.1678V141.405C79.1678 141.565 79.2061 141.69 79.2828 141.78C79.3628 141.87 79.4711 141.915 79.6078 141.915C79.6845 141.915 79.7478 141.907 79.7978 141.89C79.8511 141.87 79.8961 141.85 79.9328 141.83C79.9728 141.81 80.0078 141.792 80.0378 141.775C80.0678 141.755 80.0978 141.745 80.1278 141.745C80.1645 141.745 80.1945 141.755 80.2178 141.775C80.2411 141.792 80.2661 141.818 80.2928 141.855L80.6628 142.455C80.4828 142.605 80.2761 142.718 80.0428 142.795C79.8095 142.872 79.5678 142.91 79.3178 142.91Z" fill="#939090"/>
</svg>
