<svg width="25" height="24" viewBox="0 0 25 24" fill="none" xmlns="http://www.w3.org/2000/svg">
<path d="M1.66669 1.5H5.66669L8.34669 14.89C8.43813 15.3504 8.6886 15.764 9.05423 16.0583C9.41987 16.3526 9.87738 16.509 10.3467 16.5H20.0667C20.536 16.509 20.9935 16.3526 21.3591 16.0583C21.7248 15.764 21.9752 15.3504 22.0667 14.89L23.6667 6.5H6.66669M10.6667 21.5C10.6667 22.0523 10.219 22.5 9.66669 22.5C9.1144 22.5 8.66669 22.0523 8.66669 21.5C8.66669 20.9477 9.1144 20.5 9.66669 20.5C10.219 20.5 10.6667 20.9477 10.6667 21.5ZM21.6667 21.5C21.6667 22.0523 21.219 22.5 20.6667 22.5C20.1144 22.5 19.6667 22.0523 19.6667 21.5C19.6667 20.9477 20.1144 20.5 20.6667 20.5C21.219 20.5 21.6667 20.9477 21.6667 21.5Z" stroke="#9DB2CE" stroke-width="1.5" stroke-linecap="round" stroke-linejoin="round"/>
</svg>
